<svg width="113" height="843" viewBox="0 0 113 843" fill="none" xmlns="http://www.w3.org/2000/svg">
<line x1="57.8082" y1="-78" x2="57.8082" y2="843" stroke="url(#paint0_linear_1222_186)" stroke-width="0.6"/>
<line x1="5.62126" y1="-78" x2="5.62123" y2="843" stroke="url(#paint1_linear_1222_186)" stroke-width="0.6"/>
<line x1="30.7483" y1="-78" x2="30.7483" y2="843" stroke="url(#paint2_linear_1222_186)" stroke-width="0.6"/>
<line x1="85.8345" y1="-78" x2="85.8345" y2="843" stroke="url(#paint3_linear_1222_186)" stroke-width="0.6"/>
<line x1="109.995" y1="-78" x2="109.995" y2="843" stroke="url(#paint4_linear_1222_186)" stroke-width="0.6"/>
<path d="M57.7435 572.117L60.2361 698.383C60.241 698.63 60.2228 698.88 60.1818 699.126V699.126C59.6529 702.302 56.3618 702.55 55.9791 699.442L55.9277 699.024C55.9057 698.845 55.8959 698.662 55.8986 698.478L57.7435 572.117Z" fill="url(#paint5_linear_1222_186)"/>
<path d="M109.93 448.866L112.423 575.132C112.428 575.379 112.41 575.629 112.369 575.875V575.875C111.84 579.051 108.549 579.299 108.166 576.191L108.115 575.773C108.093 575.594 108.083 575.411 108.086 575.227L109.93 448.866Z" fill="url(#paint6_linear_1222_186)"/>
<path d="M5.5566 500.334L8.04922 626.6C8.0541 626.847 8.03583 627.096 7.99487 627.342V627.342C7.46595 630.519 4.17484 630.767 3.79219 627.658L3.74078 627.241C3.71874 627.062 3.70901 626.879 3.7117 626.695L5.5566 500.334Z" fill="url(#paint7_linear_1222_186)"/>
<defs>
<linearGradient id="paint0_linear_1222_186" x1="57.0082" y1="-78" x2="57.0082" y2="843" gradientUnits="userSpaceOnUse">
<stop offset="0.0817308"/>
<stop offset="0.360577" stop-color="#121212"/>
<stop offset="0.706731" stop-color="#595959"/>
<stop offset="1"/>
</linearGradient>
<linearGradient id="paint1_linear_1222_186" x1="4.82126" y1="-78" x2="4.8212" y2="843" gradientUnits="userSpaceOnUse">
<stop offset="0.0817308"/>
<stop offset="0.360577" stop-color="#121212"/>
<stop offset="0.706731" stop-color="#595959"/>
<stop offset="1"/>
</linearGradient>
<linearGradient id="paint2_linear_1222_186" x1="29.9483" y1="-78" x2="29.9482" y2="843" gradientUnits="userSpaceOnUse">
<stop offset="0.0817308"/>
<stop offset="0.360577" stop-color="#121212"/>
<stop offset="0.706731" stop-color="#595959"/>
<stop offset="1"/>
</linearGradient>
<linearGradient id="paint3_linear_1222_186" x1="85.0345" y1="-78" x2="85.0345" y2="843" gradientUnits="userSpaceOnUse">
<stop offset="0.0817308"/>
<stop offset="0.360577" stop-color="#121212"/>
<stop offset="0.706731" stop-color="#595959"/>
<stop offset="1"/>
</linearGradient>
<linearGradient id="paint4_linear_1222_186" x1="109.195" y1="-78" x2="109.195" y2="843" gradientUnits="userSpaceOnUse">
<stop offset="0.0817308"/>
<stop offset="0.360577" stop-color="#121212"/>
<stop offset="0.706731" stop-color="#595959"/>
<stop offset="1"/>
</linearGradient>
<linearGradient id="paint5_linear_1222_186" x1="57.0553" y1="700.109" x2="57.0554" y2="503.719" gradientUnits="userSpaceOnUse">
<stop stop-color="#656565"/>
<stop offset="1" stop-color="#0F0D0D"/>
</linearGradient>
<linearGradient id="paint6_linear_1222_186" x1="109.242" y1="576.858" x2="109.242" y2="380.468" gradientUnits="userSpaceOnUse">
<stop stop-color="#656565"/>
<stop offset="1" stop-color="#0F0D0D"/>
</linearGradient>
<linearGradient id="paint7_linear_1222_186" x1="4.8684" y1="628.326" x2="4.86848" y2="431.936" gradientUnits="userSpaceOnUse">
<stop stop-color="#656565"/>
<stop offset="1" stop-color="#0F0D0D"/>
</linearGradient>
</defs>
</svg>
