<svg width="926" height="742" viewBox="0 0 926 742" fill="none" xmlns="http://www.w3.org/2000/svg">
<g clip-path="url(#clip0_1196_142)">
<path d="M455.5 -111H481C481 -111 474.5 147 487.5 274.5C500.5 402 519 404 550 448.5C581 493 733.5 454.5 733.5 454.5L840.5 460H88H263.5L367 454.5C367 454.5 435 434.5 448.5 274.5C462 114.5 455.5 -111 455.5 -111Z" fill="url(#paint0_linear_1196_142)"/>
<g filter="url(#filter0_f_1196_142)">
<path d="M461.52 -111H468V591.026L5 781.5C5 781.5 61.7818 468.713 76 460.5C90.2182 452.287 84.5183 443.661 171.5 441.5C258.482 439.339 334.327 433.307 382 422.5C429.673 411.693 437.082 354.568 450.281 299.668C463.48 244.768 461.52 -111 461.52 -111Z" fill="url(#paint1_linear_1196_142)"/>
<path d="M474.48 -111H468V591.026L931 781.5C931 781.5 874.218 468.713 860 460.5C845.782 452.287 851.482 443.661 764.5 441.5C677.518 439.339 601.673 433.307 554 422.5C506.327 411.693 498.918 354.568 485.719 299.668C472.52 244.768 474.48 -111 474.48 -111Z" fill="url(#paint2_linear_1196_142)"/>
<path d="M462.983 -111H468V645.859L29 800C29 800 71.4916 479.355 82.5 470.5C93.5084 461.645 89.1544 455.83 156.5 453.5C223.846 451.17 364.589 448.651 401.5 437C438.411 425.349 444.062 390.932 454.281 331.744C464.501 272.556 462.983 -111 462.983 -111Z" fill="url(#paint3_linear_1196_142)"/>
<path d="M474.017 -109H469V647.859L908 802C908 802 865.508 481.355 854.5 472.5C843.492 463.645 847.846 457.83 780.5 455.5C713.154 453.17 572.411 450.651 535.5 439C498.589 427.349 492.938 392.932 482.719 333.744C472.499 274.556 474.017 -109 474.017 -109Z" fill="url(#paint4_linear_1196_142)"/>
</g>
<g filter="url(#filter1_f_1196_142)">
<path d="M464.719 -111H468.593V701L55.5 802C55.5 802 81 479 89.5 469.5C98 460 174.5 464 226.5 461.5C278.5 459 382.5 462 411 449.5C439.5 437 450.109 427.5 458 364C465.891 300.5 464.719 -111 464.719 -111Z" fill="url(#paint5_linear_1196_142)"/>
<path d="M471.874 -111H468V701L881.093 802C881.093 802 855.593 479 847.093 469.5C838.593 460 762.093 464 710.093 461.5C658.093 459 554.093 462 525.593 449.5C497.093 437 486.484 427.5 478.593 364C470.702 300.5 471.874 -111 471.874 -111Z" fill="url(#paint6_linear_1196_142)"/>
<g filter="url(#filter2_f_1196_142)">
<path d="M459 218.5C459 447.5 463 462.5 344.5 462.5" stroke="#006D9C" stroke-width="2"/>
</g>
<g filter="url(#filter3_f_1196_142)">
<path d="M460 412C456.5 469.5 442.5 460.5 321 462.5" stroke="#006D9C"/>
</g>
<g filter="url(#filter4_f_1196_142)">
<path d="M475.5 219.5C475.5 448.5 471.5 462 590 462" stroke="#006D9C" stroke-width="2"/>
</g>
<g filter="url(#filter5_f_1196_142)">
<path d="M473 412C476.5 469.5 490.5 460.5 612 462.5" stroke="#006D9C"/>
</g>
<g filter="url(#filter6_f_1196_142)">
<path d="M176 460.5C176 460.5 89.4999 459 86.5 465C77 484 54.5 633.5 54.5 633.5" stroke="url(#paint7_linear_1196_142)" stroke-width="0.3"/>
</g>
<g filter="url(#filter7_f_1196_142)">
<path d="M86 481.5L54.5 672" stroke="url(#paint8_linear_1196_142)" stroke-width="0.3"/>
</g>
<g filter="url(#filter8_f_1196_142)">
<path d="M759 462.167C759 462.167 845.5 460.667 848.5 466.667C858 485.667 880.5 635.167 880.5 635.167" stroke="url(#paint9_linear_1196_142)" stroke-width="0.3"/>
</g>
<g filter="url(#filter9_f_1196_142)">
<path d="M849 483.167L880.5 673.667" stroke="url(#paint10_linear_1196_142)" stroke-width="0.3"/>
</g>
</g>
<rect x="-30" y="672" width="1023" height="306" fill="url(#paint11_linear_1196_142)"/>
<rect x="91" y="468.001" width="756" height="447" rx="8" fill="black"/>
<g filter="url(#filter10_f_1196_142)">
<path d="M460.5 279.5C450.5 458.5 433.5 445 344 454.5" stroke="white" stroke-width="0.3"/>
</g>
<g filter="url(#filter11_f_1196_142)">
<path d="M453 364C443.011 422.148 423.972 444.786 377 449" stroke="url(#paint12_linear_1196_142)" stroke-width="0.3"/>
</g>
<g filter="url(#filter12_f_1196_142)">
<path d="M475 279C485 458 502 444.5 591.5 454" stroke="white" stroke-width="0.3"/>
</g>
<g filter="url(#filter13_f_1196_142)">
<path d="M482.5 363.5C492.489 421.648 511.528 444.286 558.5 448.5" stroke="url(#paint13_linear_1196_142)" stroke-width="0.3"/>
</g>
</g>
<defs>
<filter id="filter0_f_1196_142" x="-6.1" y="-122.1" width="948.2" height="935.2" filterUnits="userSpaceOnUse" color-interpolation-filters="sRGB">
<feFlood flood-opacity="0" result="BackgroundImageFix"/>
<feBlend mode="normal" in="SourceGraphic" in2="BackgroundImageFix" result="shape"/>
<feGaussianBlur stdDeviation="5.55" result="effect1_foregroundBlur_1196_142"/>
</filter>
<filter id="filter1_f_1196_142" x="52.7518" y="-112.6" width="829.941" height="916.2" filterUnits="userSpaceOnUse" color-interpolation-filters="sRGB">
<feFlood flood-opacity="0" result="BackgroundImageFix"/>
<feBlend mode="normal" in="SourceGraphic" in2="BackgroundImageFix" result="shape"/>
<feGaussianBlur stdDeviation="0.8" result="effect1_foregroundBlur_1196_142"/>
</filter>
<filter id="filter2_f_1196_142" x="335.2" y="209.2" width="134.116" height="263.6" filterUnits="userSpaceOnUse" color-interpolation-filters="sRGB">
<feFlood flood-opacity="0" result="BackgroundImageFix"/>
<feBlend mode="normal" in="SourceGraphic" in2="BackgroundImageFix" result="shape"/>
<feGaussianBlur stdDeviation="4.65" result="effect1_foregroundBlur_1196_142"/>
</filter>
<filter id="filter3_f_1196_142" x="311.192" y="402.17" width="159.107" height="70.6303" filterUnits="userSpaceOnUse" color-interpolation-filters="sRGB">
<feFlood flood-opacity="0" result="BackgroundImageFix"/>
<feBlend mode="normal" in="SourceGraphic" in2="BackgroundImageFix" result="shape"/>
<feGaussianBlur stdDeviation="4.9" result="effect1_foregroundBlur_1196_142"/>
</filter>
<filter id="filter4_f_1196_142" x="465.184" y="210.2" width="134.116" height="262.1" filterUnits="userSpaceOnUse" color-interpolation-filters="sRGB">
<feFlood flood-opacity="0" result="BackgroundImageFix"/>
<feBlend mode="normal" in="SourceGraphic" in2="BackgroundImageFix" result="shape"/>
<feGaussianBlur stdDeviation="4.65" result="effect1_foregroundBlur_1196_142"/>
</filter>
<filter id="filter5_f_1196_142" x="462.701" y="402.17" width="159.107" height="70.6303" filterUnits="userSpaceOnUse" color-interpolation-filters="sRGB">
<feFlood flood-opacity="0" result="BackgroundImageFix"/>
<feBlend mode="normal" in="SourceGraphic" in2="BackgroundImageFix" result="shape"/>
<feGaussianBlur stdDeviation="4.9" result="effect1_foregroundBlur_1196_142"/>
</filter>
<filter id="filter6_f_1196_142" x="50.7518" y="456.584" width="128.85" height="180.537" filterUnits="userSpaceOnUse" color-interpolation-filters="sRGB">
<feFlood flood-opacity="0" result="BackgroundImageFix"/>
<feBlend mode="normal" in="SourceGraphic" in2="BackgroundImageFix" result="shape"/>
<feGaussianBlur stdDeviation="1.8" result="effect1_foregroundBlur_1196_142"/>
</filter>
<filter id="filter7_f_1196_142" x="50.5521" y="477.676" width="39.3959" height="198.149" filterUnits="userSpaceOnUse" color-interpolation-filters="sRGB">
<feFlood flood-opacity="0" result="BackgroundImageFix"/>
<feBlend mode="normal" in="SourceGraphic" in2="BackgroundImageFix" result="shape"/>
<feGaussianBlur stdDeviation="1.9" result="effect1_foregroundBlur_1196_142"/>
</filter>
<filter id="filter8_f_1196_142" x="755.398" y="458.25" width="128.85" height="180.537" filterUnits="userSpaceOnUse" color-interpolation-filters="sRGB">
<feFlood flood-opacity="0" result="BackgroundImageFix"/>
<feBlend mode="normal" in="SourceGraphic" in2="BackgroundImageFix" result="shape"/>
<feGaussianBlur stdDeviation="1.8" result="effect1_foregroundBlur_1196_142"/>
</filter>
<filter id="filter9_f_1196_142" x="845.052" y="479.342" width="39.3959" height="198.149" filterUnits="userSpaceOnUse" color-interpolation-filters="sRGB">
<feFlood flood-opacity="0" result="BackgroundImageFix"/>
<feBlend mode="normal" in="SourceGraphic" in2="BackgroundImageFix" result="shape"/>
<feGaussianBlur stdDeviation="1.9" result="effect1_foregroundBlur_1196_142"/>
</filter>
<filter id="filter10_f_1196_142" x="342.084" y="277.592" width="120.466" height="178.957" filterUnits="userSpaceOnUse" color-interpolation-filters="sRGB">
<feFlood flood-opacity="0" result="BackgroundImageFix"/>
<feBlend mode="normal" in="SourceGraphic" in2="BackgroundImageFix" result="shape"/>
<feGaussianBlur stdDeviation="0.95" result="effect1_foregroundBlur_1196_142"/>
</filter>
<filter id="filter11_f_1196_142" x="375.087" y="362.075" width="79.9614" height="88.9748" filterUnits="userSpaceOnUse" color-interpolation-filters="sRGB">
<feFlood flood-opacity="0" result="BackgroundImageFix"/>
<feBlend mode="normal" in="SourceGraphic" in2="BackgroundImageFix" result="shape"/>
<feGaussianBlur stdDeviation="0.95" result="effect1_foregroundBlur_1196_142"/>
</filter>
<filter id="filter12_f_1196_142" x="472.95" y="277.092" width="120.465" height="178.957" filterUnits="userSpaceOnUse" color-interpolation-filters="sRGB">
<feFlood flood-opacity="0" result="BackgroundImageFix"/>
<feBlend mode="normal" in="SourceGraphic" in2="BackgroundImageFix" result="shape"/>
<feGaussianBlur stdDeviation="0.95" result="effect1_foregroundBlur_1196_142"/>
</filter>
<filter id="filter13_f_1196_142" x="480.452" y="361.575" width="79.9611" height="88.9748" filterUnits="userSpaceOnUse" color-interpolation-filters="sRGB">
<feFlood flood-opacity="0" result="BackgroundImageFix"/>
<feBlend mode="normal" in="SourceGraphic" in2="BackgroundImageFix" result="shape"/>
<feGaussianBlur stdDeviation="0.95" result="effect1_foregroundBlur_1196_142"/>
</filter>
<linearGradient id="paint0_linear_1196_142" x1="218" y1="188.5" x2="726.999" y2="187.5" gradientUnits="userSpaceOnUse">
<stop stop-color="#009BBE"/>
<stop offset="0.490385" stop-color="#009BBE" stop-opacity="0"/>
<stop offset="1" stop-color="#009BBE"/>
</linearGradient>
<linearGradient id="paint1_linear_1196_142" x1="236.5" y1="-111" x2="236.5" y2="798" gradientUnits="userSpaceOnUse">
<stop stop-color="#006D9C"/>
<stop offset="0.981525" stop-color="#0A0B10"/>
</linearGradient>
<linearGradient id="paint2_linear_1196_142" x1="699.5" y1="-111" x2="699.5" y2="798" gradientUnits="userSpaceOnUse">
<stop stop-color="#006D9C"/>
<stop offset="0.981525" stop-color="#0A0B10"/>
</linearGradient>
<linearGradient id="paint3_linear_1196_142" x1="248.5" y1="-111" x2="248.5" y2="787.028" gradientUnits="userSpaceOnUse">
<stop offset="0.567308" stop-color="#018E98"/>
<stop offset="0.989851" stop-color="#0A0B10"/>
</linearGradient>
<linearGradient id="paint4_linear_1196_142" x1="688.5" y1="-109" x2="688.5" y2="789.028" gradientUnits="userSpaceOnUse">
<stop offset="0.567308" stop-color="#018E98"/>
<stop offset="0.989851" stop-color="#0A0B10"/>
</linearGradient>
<linearGradient id="paint5_linear_1196_142" x1="262.046" y1="-111" x2="291.409" y2="777.773" gradientUnits="userSpaceOnUse">
<stop offset="0.802885" stop-color="white"/>
<stop offset="0.985577" stop-color="#0A0B10" stop-opacity="0"/>
</linearGradient>
<linearGradient id="paint6_linear_1196_142" x1="674.546" y1="-111" x2="645.184" y2="777.773" gradientUnits="userSpaceOnUse">
<stop offset="0.802885" stop-color="white"/>
<stop offset="0.985577" stop-color="#0A0B10" stop-opacity="0"/>
</linearGradient>
<linearGradient id="paint7_linear_1196_142" x1="99.75" y1="457" x2="99.75" y2="635" gradientUnits="userSpaceOnUse">
<stop stop-color="white"/>
<stop offset="1" stop-color="#999999"/>
</linearGradient>
<linearGradient id="paint8_linear_1196_142" x1="65.5175" y1="521.209" x2="65.5175" y2="670.256" gradientUnits="userSpaceOnUse">
<stop stop-color="white"/>
<stop offset="1" stop-color="#999999"/>
</linearGradient>
<linearGradient id="paint9_linear_1196_142" x1="835.25" y1="458.667" x2="835.25" y2="636.666" gradientUnits="userSpaceOnUse">
<stop stop-color="white"/>
<stop offset="1" stop-color="#999999"/>
</linearGradient>
<linearGradient id="paint10_linear_1196_142" x1="869.483" y1="522.875" x2="869.483" y2="671.922" gradientUnits="userSpaceOnUse">
<stop stop-color="white"/>
<stop offset="1" stop-color="#999999"/>
</linearGradient>
<linearGradient id="paint11_linear_1196_142" x1="462" y1="453.5" x2="463.5" y2="908" gradientUnits="userSpaceOnUse">
<stop offset="0.524003" stop-opacity="0"/>
<stop offset="0.844618"/>
</linearGradient>
<linearGradient id="paint12_linear_1196_142" x1="415" y1="364" x2="415" y2="449" gradientUnits="userSpaceOnUse">
<stop stop-color="white"/>
<stop offset="1" stop-color="#999999"/>
</linearGradient>
<linearGradient id="paint13_linear_1196_142" x1="520.5" y1="363.5" x2="520.5" y2="448.5" gradientUnits="userSpaceOnUse">
<stop stop-color="white"/>
<stop offset="1" stop-color="#999999"/>
</linearGradient>
<clipPath id="clip0_1196_142">
<rect width="926" height="742" fill="white"/>
</clipPath>
</defs>
</svg>
