<svg width="497" height="123" viewBox="0 0 497 123" fill="none" xmlns="http://www.w3.org/2000/svg">
<path d="M0 59L59 59" stroke="white" stroke-width="0.5"/>
<circle cx="21.4054" cy="21.4054" r="21.1081" transform="matrix(1 0 0 -1 59 80.8105)" stroke="#DBDBDB" stroke-width="0.594595"/>
<path d="M102 59H153.105C165.026 59 176.606 55.0197 186.007 47.6904L231.391 12.3096C240.792 4.98031 252.372 1 264.293 1H497" stroke="url(#paint0_linear_1224_480)" stroke-width="0.594595"/>
<path d="M126.525 115.959V99.1453H133.107C134.147 99.1453 135.06 99.3214 135.845 99.6737C136.645 100.026 137.27 100.538 137.718 101.211C138.183 101.867 138.415 102.668 138.415 103.613V103.853C138.415 104.99 138.143 105.887 137.598 106.543C137.054 107.184 136.413 107.608 135.677 107.816V108.105C136.237 108.121 136.709 108.297 137.094 108.633C137.478 108.969 137.67 109.506 137.67 110.242V115.959H136.133V110.41C136.133 109.898 135.989 109.506 135.701 109.233C135.428 108.961 135.012 108.825 134.452 108.825H128.062V115.959H126.525ZM128.062 107.432H132.962C134.211 107.432 135.172 107.144 135.845 106.567C136.533 105.975 136.878 105.134 136.878 104.045V103.925C136.878 102.836 136.541 102.004 135.869 101.427C135.212 100.835 134.243 100.538 132.962 100.538H128.062V107.432ZM145.665 116.295C144.464 116.295 143.416 116.047 142.519 115.551C141.638 115.038 140.95 114.326 140.453 113.413C139.957 112.5 139.709 111.451 139.709 110.266V109.978C139.709 108.777 139.957 107.728 140.453 106.832C140.95 105.919 141.63 105.214 142.495 104.718C143.376 104.205 144.376 103.949 145.497 103.949C146.586 103.949 147.547 104.181 148.38 104.646C149.228 105.094 149.893 105.751 150.373 106.615C150.854 107.464 151.094 108.481 151.094 109.666V110.434H141.15C141.198 111.892 141.638 113.021 142.471 113.821C143.319 114.606 144.384 114.998 145.665 114.998C146.754 114.998 147.595 114.75 148.187 114.254C148.796 113.757 149.26 113.149 149.581 112.428L150.878 113.005C150.637 113.533 150.301 114.053 149.869 114.566C149.452 115.062 148.908 115.479 148.235 115.815C147.563 116.135 146.706 116.295 145.665 116.295ZM141.174 109.185H149.629C149.565 107.92 149.156 106.952 148.404 106.279C147.651 105.591 146.682 105.246 145.497 105.246C144.328 105.246 143.36 105.591 142.591 106.279C141.822 106.952 141.35 107.92 141.174 109.185ZM153.199 120.763V104.285H154.592V106.423H154.881C155.217 105.783 155.737 105.214 156.442 104.718C157.163 104.205 158.163 103.949 159.444 103.949C160.485 103.949 161.43 104.197 162.279 104.694C163.127 105.174 163.8 105.863 164.296 106.759C164.809 107.656 165.065 108.729 165.065 109.978V110.266C165.065 111.499 164.817 112.572 164.32 113.485C163.824 114.382 163.151 115.078 162.303 115.575C161.454 116.055 160.501 116.295 159.444 116.295C158.596 116.295 157.867 116.183 157.259 115.959C156.666 115.719 156.178 115.415 155.793 115.046C155.425 114.678 155.137 114.302 154.929 113.917H154.64V120.763H153.199ZM159.108 114.998C160.437 114.998 161.51 114.574 162.327 113.725C163.159 112.876 163.576 111.708 163.576 110.218V110.026C163.576 108.537 163.159 107.368 162.327 106.519C161.51 105.671 160.437 105.246 159.108 105.246C157.795 105.246 156.722 105.671 155.889 106.519C155.057 107.368 154.64 108.537 154.64 110.026V110.218C154.64 111.708 155.057 112.876 155.889 113.725C156.722 114.574 157.795 114.998 159.108 114.998ZM172.619 116.295C171.434 116.295 170.393 116.047 169.496 115.551C168.615 115.038 167.927 114.334 167.431 113.437C166.95 112.524 166.71 111.467 166.71 110.266V109.978C166.71 108.777 166.95 107.728 167.431 106.832C167.927 105.919 168.615 105.214 169.496 104.718C170.393 104.205 171.434 103.949 172.619 103.949C173.804 103.949 174.837 104.205 175.717 104.718C176.614 105.214 177.303 105.919 177.783 106.832C178.279 107.728 178.528 108.777 178.528 109.978V110.266C178.528 111.467 178.279 112.524 177.783 113.437C177.303 114.334 176.614 115.038 175.717 115.551C174.837 116.047 173.804 116.295 172.619 116.295ZM172.619 114.998C173.996 114.998 175.085 114.566 175.885 113.701C176.686 112.82 177.086 111.659 177.086 110.218V110.026C177.086 108.585 176.686 107.432 175.885 106.567C175.085 105.687 173.996 105.246 172.619 105.246C171.258 105.246 170.169 105.687 169.352 106.567C168.551 107.432 168.151 108.585 168.151 110.026V110.218C168.151 111.659 168.551 112.82 169.352 113.701C170.169 114.566 171.258 114.998 172.619 114.998ZM187.105 115.959L184.151 99.1453H185.712L188.402 115.046H188.691L192.174 99.1453H195.008L198.491 115.046H198.779L201.469 99.1453H203.03L200.076 115.959H197.218L193.735 100.058H193.447L189.964 115.959H187.105ZM204.669 115.959V99.1453H206.11V106.327H206.398C206.59 105.943 206.855 105.583 207.191 105.246C207.543 104.894 207.991 104.614 208.536 104.406C209.096 104.181 209.793 104.069 210.626 104.069C211.474 104.069 212.251 104.245 212.956 104.598C213.66 104.95 214.221 105.478 214.637 106.183C215.069 106.888 215.285 107.776 215.285 108.849V115.959H213.844V108.945C213.844 107.664 213.524 106.751 212.883 106.207C212.243 105.647 211.386 105.366 210.313 105.366C209.112 105.366 208.112 105.759 207.311 106.543C206.51 107.328 206.11 108.521 206.11 110.122V115.959H204.669ZM217.935 115.959V104.285H219.376V115.959H217.935ZM218.655 102.268C218.303 102.268 218.007 102.148 217.767 101.908C217.527 101.667 217.406 101.371 217.406 101.019C217.406 100.65 217.527 100.354 217.767 100.13C218.007 99.8899 218.303 99.7698 218.655 99.7698C219.024 99.7698 219.32 99.8899 219.544 100.13C219.784 100.354 219.905 100.65 219.905 101.019C219.905 101.371 219.784 101.667 219.544 101.908C219.32 102.148 219.024 102.268 218.655 102.268ZM226.806 116.295C225.397 116.295 224.188 115.959 223.179 115.286C222.186 114.614 221.578 113.501 221.354 111.948L222.771 111.683C222.899 112.532 223.155 113.205 223.539 113.701C223.94 114.182 224.42 114.526 224.981 114.734C225.557 114.942 226.165 115.046 226.806 115.046C227.767 115.046 228.535 114.854 229.112 114.47C229.704 114.069 230.001 113.525 230.001 112.836C230.001 112.132 229.72 111.643 229.16 111.371C228.615 111.099 227.887 110.883 226.974 110.723L225.869 110.531C225.133 110.402 224.468 110.21 223.876 109.954C223.283 109.682 222.811 109.322 222.458 108.873C222.122 108.425 221.954 107.864 221.954 107.192C221.954 106.183 222.346 105.39 223.131 104.814C223.932 104.237 224.989 103.949 226.302 103.949C227.631 103.949 228.696 104.253 229.496 104.862C230.313 105.454 230.825 106.319 231.033 107.456L229.688 107.744C229.528 106.816 229.144 106.159 228.535 105.775C227.943 105.39 227.198 105.198 226.302 105.198C225.421 105.198 224.716 105.366 224.188 105.703C223.659 106.039 223.395 106.535 223.395 107.192C223.395 107.832 223.635 108.305 224.116 108.609C224.596 108.897 225.253 109.113 226.085 109.258L227.19 109.45C227.991 109.578 228.712 109.77 229.352 110.026C229.993 110.266 230.497 110.611 230.865 111.059C231.25 111.507 231.442 112.1 231.442 112.836C231.442 113.941 231.025 114.798 230.193 115.407C229.36 115.999 228.231 116.295 226.806 116.295ZM233.419 120.763V104.285H234.812V106.423H235.1C235.437 105.783 235.957 105.214 236.662 104.718C237.382 104.205 238.383 103.949 239.664 103.949C240.705 103.949 241.65 104.197 242.498 104.694C243.347 105.174 244.02 105.863 244.516 106.759C245.029 107.656 245.285 108.729 245.285 109.978V110.266C245.285 111.499 245.037 112.572 244.54 113.485C244.044 114.382 243.371 115.078 242.523 115.575C241.674 116.055 240.721 116.295 239.664 116.295C238.815 116.295 238.087 116.183 237.478 115.959C236.886 115.719 236.398 115.415 236.013 115.046C235.645 114.678 235.357 114.302 235.149 113.917H234.86V120.763H233.419ZM239.328 114.998C240.657 114.998 241.73 114.574 242.547 113.725C243.379 112.876 243.796 111.708 243.796 110.218V110.026C243.796 108.537 243.379 107.368 242.547 106.519C241.73 105.671 240.657 105.246 239.328 105.246C238.015 105.246 236.942 105.671 236.109 106.519C235.277 107.368 234.86 108.537 234.86 110.026V110.218C234.86 111.708 235.277 112.876 236.109 113.725C236.942 114.574 238.015 114.998 239.328 114.998ZM252.887 116.295C251.686 116.295 250.637 116.047 249.74 115.551C248.859 115.038 248.171 114.326 247.674 113.413C247.178 112.5 246.93 111.451 246.93 110.266V109.978C246.93 108.777 247.178 107.728 247.674 106.832C248.171 105.919 248.851 105.214 249.716 104.718C250.597 104.205 251.598 103.949 252.718 103.949C253.807 103.949 254.768 104.181 255.601 104.646C256.449 105.094 257.114 105.751 257.594 106.615C258.075 107.464 258.315 108.481 258.315 109.666V110.434H248.371C248.419 111.892 248.859 113.021 249.692 113.821C250.541 114.606 251.606 114.998 252.887 114.998C253.975 114.998 254.816 114.75 255.409 114.254C256.017 113.757 256.482 113.149 256.802 112.428L258.099 113.005C257.859 113.533 257.522 114.053 257.09 114.566C256.674 115.062 256.129 115.479 255.457 115.815C254.784 116.135 253.927 116.295 252.887 116.295ZM248.395 109.185H256.85C256.786 107.92 256.377 106.952 255.625 106.279C254.872 105.591 253.903 105.246 252.718 105.246C251.55 105.246 250.581 105.591 249.812 106.279C249.043 106.952 248.571 107.92 248.395 109.185ZM260.42 115.959V104.285H261.814V105.751H262.102C262.326 105.222 262.654 104.838 263.087 104.598C263.535 104.358 264.152 104.237 264.936 104.237H266.305V105.583H264.768C263.887 105.583 263.183 105.831 262.654 106.327C262.126 106.824 261.862 107.6 261.862 108.657V115.959H260.42ZM272.804 116.295C271.603 116.295 270.554 116.047 269.658 115.551C268.777 115.038 268.088 114.326 267.592 113.413C267.095 112.5 266.847 111.451 266.847 110.266V109.978C266.847 108.777 267.095 107.728 267.592 106.832C268.088 105.919 268.769 105.214 269.633 104.718C270.514 104.205 271.515 103.949 272.636 103.949C273.725 103.949 274.686 104.181 275.518 104.646C276.367 105.094 277.032 105.751 277.512 106.615C277.992 107.464 278.233 108.481 278.233 109.666V110.434H268.288C268.336 111.892 268.777 113.021 269.609 113.821C270.458 114.606 271.523 114.998 272.804 114.998C273.893 114.998 274.734 114.75 275.326 114.254C275.935 113.757 276.399 113.149 276.719 112.428L278.016 113.005C277.776 113.533 277.44 114.053 277.008 114.566C276.591 115.062 276.047 115.479 275.374 115.815C274.702 116.135 273.845 116.295 272.804 116.295ZM268.312 109.185H276.767C276.703 107.92 276.295 106.952 275.542 106.279C274.79 105.591 273.821 105.246 272.636 105.246C271.467 105.246 270.498 105.591 269.73 106.279C268.961 106.952 268.489 107.92 268.312 109.185ZM280.338 115.959V104.285H281.731V105.751H282.019C282.244 105.222 282.572 104.838 283.004 104.598C283.453 104.358 284.069 104.237 284.854 104.237H286.223V105.583H284.686C283.805 105.583 283.1 105.831 282.572 106.327C282.043 106.824 281.779 107.6 281.779 108.657V115.959H280.338Z" fill="white"/>
<circle cx="1.78378" cy="1.78378" r="1.78378" transform="matrix(-1 0 0 1 112.568 105.676)" fill="#D9D9D9"/>
<path d="M80 45C87.732 45 94 51.268 94 59C94 66.732 87.732 73 80 73C72.268 73 66 66.732 66 59C66 51.268 72.268 45 80 45ZM80.5176 48.9043C80.4364 48.6454 80.0735 48.6357 79.9785 48.8896L77.4053 55.793C77.2579 56.1884 76.9428 56.4989 76.5449 56.6396L69.8711 59C69.6181 59.0898 69.618 59.4475 69.8711 59.5371L76.5449 61.8965C76.9429 62.0372 77.2579 62.3467 77.4053 62.7422L79.9785 69.6465C80.0733 69.9008 80.4363 69.8908 80.5176 69.6318L82.6562 62.8135C82.7932 62.3768 83.1313 62.0324 83.5654 61.8877L90.6143 59.5391C90.8741 59.4525 90.8741 59.0847 90.6143 58.998L83.5654 56.6475C83.1314 56.5028 82.7932 56.1582 82.6562 55.7217L80.5176 48.9043Z" fill="#D9D9D9"/>
<defs>
<linearGradient id="paint0_linear_1224_480" x1="102" y1="30" x2="551.216" y2="30" gradientUnits="userSpaceOnUse">
<stop stop-color="white"/>
<stop offset="0.820461" stop-color="#999999" stop-opacity="0"/>
</linearGradient>
</defs>
</svg>
