<svg width="473" height="116" viewBox="0 0 473 116" fill="none" xmlns="http://www.w3.org/2000/svg">
<path d="M0 58H109" stroke="white" stroke-width="0.5"/>
<circle cx="130.405" cy="58.4054" r="21.1081" stroke="#DBDBDB" stroke-width="0.594595"/>
<path d="M152 58H211.157C224.805 58 237.937 63.2141 247.867 72.5759L277.405 100.424C287.335 109.786 300.467 115 314.114 115H473" stroke="url(#paint0_linear_1224_444)" stroke-width="0.594595"/>
<circle cx="153.784" cy="15.4596" r="1.78378" fill="#D9D9D9"/>
<path d="M169.525 23.959V7.14527H176.107C177.147 7.14527 178.06 7.32141 178.845 7.6737C179.645 8.02599 180.27 8.53841 180.718 9.21096C181.183 9.86749 181.415 10.6681 181.415 11.6129V11.8531C181.415 12.99 181.143 13.8868 180.598 14.5433C180.054 15.1838 179.413 15.6082 178.677 15.8163V16.1046C179.237 16.1206 179.709 16.2967 180.094 16.633C180.478 16.9693 180.67 17.5057 180.67 18.2423V23.959H179.133V18.4105C179.133 17.898 178.989 17.5057 178.701 17.2335C178.428 16.9613 178.012 16.8252 177.452 16.8252H171.062V23.959H169.525ZM171.062 15.432H175.962C177.211 15.432 178.172 15.1438 178.845 14.5673C179.533 13.9748 179.878 13.1342 179.878 12.0453V11.9252C179.878 10.8363 179.541 10.0036 178.869 9.42713C178.212 8.83465 177.243 8.53841 175.962 8.53841H171.062V15.432ZM188.665 24.2953C187.464 24.2953 186.416 24.0471 185.519 23.5507C184.638 23.0382 183.95 22.3257 183.453 21.4129C182.957 20.5002 182.709 19.4513 182.709 18.2663V17.9781C182.709 16.7771 182.957 15.7283 183.453 14.8315C183.95 13.9188 184.63 13.2142 185.495 12.7178C186.376 12.2054 187.376 11.9492 188.497 11.9492C189.586 11.9492 190.547 12.1814 191.38 12.6458C192.228 13.0941 192.893 13.7507 193.373 14.6154C193.854 15.4641 194.094 16.4809 194.094 17.6659V18.4345H184.15C184.198 19.8917 184.638 21.0206 185.471 21.8212C186.319 22.6059 187.384 22.9982 188.665 22.9982C189.754 22.9982 190.595 22.75 191.187 22.2536C191.796 21.7572 192.26 21.1487 192.581 20.4281L193.878 21.0046C193.637 21.533 193.301 22.0534 192.869 22.5658C192.452 23.0623 191.908 23.4786 191.235 23.8149C190.563 24.1351 189.706 24.2953 188.665 24.2953ZM184.174 17.1855H192.629C192.565 15.9204 192.156 14.9516 191.404 14.2791C190.651 13.5905 189.682 13.2462 188.497 13.2462C187.328 13.2462 186.36 13.5905 185.591 14.2791C184.822 14.9516 184.35 15.9204 184.174 17.1855ZM196.199 28.7629V12.2855H197.592V14.4232H197.881C198.217 13.7827 198.737 13.2142 199.442 12.7178C200.163 12.2054 201.163 11.9492 202.444 11.9492C203.485 11.9492 204.43 12.1974 205.279 12.6938C206.127 13.1742 206.8 13.8627 207.296 14.7595C207.809 15.6562 208.065 16.7291 208.065 17.9781V18.2663C208.065 19.4993 207.817 20.5722 207.32 21.485C206.824 22.3817 206.151 23.0783 205.303 23.5747C204.454 24.0551 203.501 24.2953 202.444 24.2953C201.596 24.2953 200.867 24.1832 200.259 23.959C199.666 23.7188 199.178 23.4145 198.793 23.0462C198.425 22.6779 198.137 22.3016 197.929 21.9173H197.64V28.7629H196.199ZM202.108 22.9982C203.437 22.9982 204.51 22.5739 205.327 21.7252C206.159 20.8765 206.576 19.7075 206.576 18.2183V18.0261C206.576 16.5369 206.159 15.368 205.327 14.5193C204.51 13.6706 203.437 13.2462 202.108 13.2462C200.795 13.2462 199.722 13.6706 198.889 14.5193C198.057 15.368 197.64 16.5369 197.64 18.0261V18.2183C197.64 19.7075 198.057 20.8765 198.889 21.7252C199.722 22.5739 200.795 22.9982 202.108 22.9982ZM215.619 24.2953C214.434 24.2953 213.393 24.0471 212.496 23.5507C211.615 23.0382 210.927 22.3337 210.431 21.4369C209.95 20.5242 209.71 19.4673 209.71 18.2663V17.9781C209.71 16.7771 209.95 15.7283 210.431 14.8315C210.927 13.9188 211.615 13.2142 212.496 12.7178C213.393 12.2054 214.434 11.9492 215.619 11.9492C216.804 11.9492 217.837 12.2054 218.717 12.7178C219.614 13.2142 220.303 13.9188 220.783 14.8315C221.279 15.7283 221.528 16.7771 221.528 17.9781V18.2663C221.528 19.4673 221.279 20.5242 220.783 21.4369C220.303 22.3337 219.614 23.0382 218.717 23.5507C217.837 24.0471 216.804 24.2953 215.619 24.2953ZM215.619 22.9982C216.996 22.9982 218.085 22.5658 218.885 21.7011C219.686 20.8204 220.086 19.6595 220.086 18.2183V18.0261C220.086 16.585 219.686 15.432 218.885 14.5673C218.085 13.6866 216.996 13.2462 215.619 13.2462C214.258 13.2462 213.169 13.6866 212.352 14.5673C211.551 15.432 211.151 16.585 211.151 18.0261V18.2183C211.151 19.6595 211.551 20.8204 212.352 21.7011C213.169 22.5658 214.258 22.9982 215.619 22.9982ZM230.105 23.959L227.151 7.14527H228.712L231.402 23.0462H231.691L235.174 7.14527H238.008L241.491 23.0462H241.779L244.469 7.14527H246.03L243.076 23.959H240.218L236.735 8.05801H236.447L232.964 23.959H230.105ZM247.669 23.959V7.14527H249.11V14.3271H249.398C249.59 13.9428 249.855 13.5825 250.191 13.2462C250.543 12.894 250.991 12.6137 251.536 12.4056C252.096 12.1814 252.793 12.0693 253.626 12.0693C254.474 12.0693 255.251 12.2454 255.956 12.5977C256.66 12.95 257.221 13.4784 257.637 14.183C258.069 14.8876 258.285 15.7763 258.285 16.8492V23.959H256.844V16.9453C256.844 15.6642 256.524 14.7515 255.883 14.207C255.243 13.6466 254.386 13.3663 253.313 13.3663C252.112 13.3663 251.112 13.7587 250.311 14.5433C249.51 15.3279 249.11 16.5209 249.11 18.1222V23.959H247.669ZM260.935 23.959V12.2855H262.376V23.959H260.935ZM261.655 10.2678C261.303 10.2678 261.007 10.1477 260.767 9.90752C260.527 9.66733 260.406 9.37109 260.406 9.0188C260.406 8.6505 260.527 8.35426 260.767 8.13007C261.007 7.88988 261.303 7.76978 261.655 7.76978C262.024 7.76978 262.32 7.88988 262.544 8.13007C262.784 8.35426 262.905 8.6505 262.905 9.0188C262.905 9.37109 262.784 9.66733 262.544 9.90752C262.32 10.1477 262.024 10.2678 261.655 10.2678ZM269.806 24.2953C268.397 24.2953 267.188 23.959 266.179 23.2864C265.186 22.6139 264.578 21.501 264.354 19.9477L265.771 19.6835C265.899 20.5322 266.155 21.2047 266.539 21.7011C266.94 22.1815 267.42 22.5258 267.981 22.734C268.557 22.9422 269.165 23.0462 269.806 23.0462C270.767 23.0462 271.535 22.8541 272.112 22.4698C272.704 22.0694 273.001 21.525 273.001 20.8364C273.001 20.1319 272.72 19.6435 272.16 19.3712C271.615 19.099 270.887 18.8828 269.974 18.7227L268.869 18.5306C268.133 18.4025 267.468 18.2103 266.876 17.9541C266.283 17.6819 265.811 17.3216 265.458 16.8732C265.122 16.4248 264.954 15.8644 264.954 15.1918C264.954 14.183 265.346 13.3904 266.131 12.8139C266.932 12.2374 267.989 11.9492 269.302 11.9492C270.631 11.9492 271.696 12.2534 272.496 12.8619C273.313 13.4544 273.825 14.3191 274.033 15.456L272.688 15.7443C272.528 14.8155 272.144 14.159 271.535 13.7747C270.943 13.3904 270.198 13.1982 269.302 13.1982C268.421 13.1982 267.716 13.3663 267.188 13.7026C266.659 14.0389 266.395 14.5353 266.395 15.1918C266.395 15.8324 266.635 16.3047 267.116 16.609C267.596 16.8972 268.253 17.1134 269.085 17.2575L270.19 17.4497C270.991 17.5778 271.712 17.7699 272.352 18.0261C272.993 18.2663 273.497 18.6106 273.865 19.059C274.25 19.5074 274.442 20.0998 274.442 20.8364C274.442 21.9413 274.025 22.798 273.193 23.4065C272.36 23.999 271.231 24.2953 269.806 24.2953ZM276.419 28.7629V12.2855H277.812V14.4232H278.1C278.437 13.7827 278.957 13.2142 279.662 12.7178C280.382 12.2054 281.383 11.9492 282.664 11.9492C283.705 11.9492 284.65 12.1974 285.498 12.6938C286.347 13.1742 287.02 13.8627 287.516 14.7595C288.029 15.6562 288.285 16.7291 288.285 17.9781V18.2663C288.285 19.4993 288.037 20.5722 287.54 21.485C287.044 22.3817 286.371 23.0783 285.523 23.5747C284.674 24.0551 283.721 24.2953 282.664 24.2953C281.815 24.2953 281.087 24.1832 280.478 23.959C279.886 23.7188 279.398 23.4145 279.013 23.0462C278.645 22.6779 278.357 22.3016 278.149 21.9173H277.86V28.7629H276.419ZM282.328 22.9982C283.657 22.9982 284.73 22.5739 285.547 21.7252C286.379 20.8765 286.796 19.7075 286.796 18.2183V18.0261C286.796 16.5369 286.379 15.368 285.547 14.5193C284.73 13.6706 283.657 13.2462 282.328 13.2462C281.015 13.2462 279.942 13.6706 279.109 14.5193C278.277 15.368 277.86 16.5369 277.86 18.0261V18.2183C277.86 19.7075 278.277 20.8765 279.109 21.7252C279.942 22.5739 281.015 22.9982 282.328 22.9982ZM295.887 24.2953C294.686 24.2953 293.637 24.0471 292.74 23.5507C291.859 23.0382 291.171 22.3257 290.674 21.4129C290.178 20.5002 289.93 19.4513 289.93 18.2663V17.9781C289.93 16.7771 290.178 15.7283 290.674 14.8315C291.171 13.9188 291.851 13.2142 292.716 12.7178C293.597 12.2054 294.598 11.9492 295.718 11.9492C296.807 11.9492 297.768 12.1814 298.601 12.6458C299.449 13.0941 300.114 13.7507 300.594 14.6154C301.075 15.4641 301.315 16.4809 301.315 17.6659V18.4345H291.371C291.419 19.8917 291.859 21.0206 292.692 21.8212C293.541 22.6059 294.606 22.9982 295.887 22.9982C296.975 22.9982 297.816 22.75 298.409 22.2536C299.017 21.7572 299.482 21.1487 299.802 20.4281L301.099 21.0046C300.859 21.533 300.522 22.0534 300.09 22.5658C299.674 23.0623 299.129 23.4786 298.457 23.8149C297.784 24.1351 296.927 24.2953 295.887 24.2953ZM291.395 17.1855H299.85C299.786 15.9204 299.377 14.9516 298.625 14.2791C297.872 13.5905 296.903 13.2462 295.718 13.2462C294.55 13.2462 293.581 13.5905 292.812 14.2791C292.043 14.9516 291.571 15.9204 291.395 17.1855ZM303.42 23.959V12.2855H304.814V13.7507H305.102C305.326 13.2222 305.654 12.8379 306.087 12.5977C306.535 12.3575 307.152 12.2374 307.936 12.2374H309.305V13.5825H307.768C306.887 13.5825 306.183 13.8307 305.654 14.3271C305.126 14.8235 304.862 15.6002 304.862 16.657V23.959H303.42ZM315.804 24.2953C314.603 24.2953 313.554 24.0471 312.658 23.5507C311.777 23.0382 311.088 22.3257 310.592 21.4129C310.095 20.5002 309.847 19.4513 309.847 18.2663V17.9781C309.847 16.7771 310.095 15.7283 310.592 14.8315C311.088 13.9188 311.769 13.2142 312.633 12.7178C313.514 12.2054 314.515 11.9492 315.636 11.9492C316.725 11.9492 317.686 12.1814 318.518 12.6458C319.367 13.0941 320.032 13.7507 320.512 14.6154C320.992 15.4641 321.233 16.4809 321.233 17.6659V18.4345H311.288C311.336 19.8917 311.777 21.0206 312.609 21.8212C313.458 22.6059 314.523 22.9982 315.804 22.9982C316.893 22.9982 317.734 22.75 318.326 22.2536C318.935 21.7572 319.399 21.1487 319.719 20.4281L321.016 21.0046C320.776 21.533 320.44 22.0534 320.008 22.5658C319.591 23.0623 319.047 23.4786 318.374 23.8149C317.702 24.1351 316.845 24.2953 315.804 24.2953ZM311.312 17.1855H319.767C319.703 15.9204 319.295 14.9516 318.542 14.2791C317.79 13.5905 316.821 13.2462 315.636 13.2462C314.467 13.2462 313.498 13.5905 312.73 14.2791C311.961 14.9516 311.489 15.9204 311.312 17.1855ZM323.338 23.959V12.2855H324.731V13.7507H325.019C325.244 13.2222 325.572 12.8379 326.004 12.5977C326.453 12.3575 327.069 12.2374 327.854 12.2374H329.223V13.5825H327.686C326.805 13.5825 326.1 13.8307 325.572 14.3271C325.043 14.8235 324.779 15.6002 324.779 16.657V23.959H323.338Z" fill="white"/>
<path d="M131 69H120.957C120.703 69 120.46 68.8992 120.28 68.7198C120.101 68.5405 120 68.2972 120 68.0435V58C120 55.0826 121.159 52.2847 123.222 50.2218C125.285 48.1589 128.083 47 131 47C132.445 47 133.875 47.2845 135.21 47.8373C136.544 48.3901 137.757 49.2004 138.778 50.2218C139.8 51.2433 140.61 52.4559 141.163 53.7905C141.715 55.1251 142 56.5555 142 58C142 59.4445 141.715 60.8749 141.163 62.2095C140.61 63.5441 139.8 64.7567 138.778 65.7782C137.757 66.7996 136.544 67.6099 135.21 68.1627C133.875 68.7155 132.445 69 131 69Z" stroke="white" stroke-width="1.85507" stroke-linecap="round" stroke-linejoin="round"/>
<path d="M137.605 57.5004L133.468 55.9965L131.964 51.8591C131.89 51.6594 131.756 51.4871 131.581 51.3655C131.406 51.2439 131.199 51.1787 130.986 51.1787C130.773 51.1787 130.565 51.2439 130.39 51.3655C130.215 51.4871 130.081 51.6594 130.007 51.8591L128.503 55.9965L124.366 57.5004C124.166 57.5745 123.994 57.708 123.872 57.8828C123.751 58.0577 123.686 58.2656 123.686 58.4786C123.686 58.6917 123.751 58.8996 123.872 59.0744C123.994 59.2493 124.166 59.3828 124.366 59.4569L128.503 60.9615L130.007 65.0982C130.081 65.2979 130.215 65.4701 130.39 65.5918C130.565 65.7134 130.773 65.7786 130.986 65.7786C131.199 65.7786 131.406 65.7134 131.581 65.5918C131.756 65.4701 131.89 65.2979 131.964 65.0982L133.468 60.9608L137.605 59.4569C137.805 59.3828 137.977 59.2493 138.099 59.0744C138.22 58.8996 138.285 58.6917 138.285 58.4786C138.285 58.2656 138.22 58.0577 138.099 57.8828C137.977 57.708 137.805 57.5745 137.605 57.5004ZM132.882 60.0634C132.81 60.0895 132.745 60.1309 132.692 60.1847C132.638 60.2386 132.596 60.3036 132.57 60.3752L131.14 59.1742L129.401 60.3752C129.375 60.3036 129.333 60.2386 129.279 60.1847C129.226 60.1309 129.161 60.0895 129.089 60.0634L124.731 58.4786L130.007 61.4157C130.822 64.3917 133.946 58.1459 134 58.0921C134.054 58.0382 129.375 56.6537 129.401 56.5821L134.464 58.4786L132.57 56.5821C132.596 56.6537 132.638 56.7187 132.692 56.7725C132.745 56.8264 132.81 56.8678 132.882 56.8939L129.279 58.0921L132.882 60.0634Z" fill="white"/>
<defs>
<linearGradient id="paint0_linear_1224_444" x1="152" y1="86.5" x2="517.059" y2="86.5" gradientUnits="userSpaceOnUse">
<stop stop-color="white"/>
<stop offset="0.820461" stop-color="#999999" stop-opacity="0"/>
</linearGradient>
</defs>
</svg>
