<svg width="473" height="115" viewBox="0 0 473 115" fill="none" xmlns="http://www.w3.org/2000/svg">
<path d="M473 58H364" stroke="white" stroke-width="0.5"/>
<circle cx="342.595" cy="57.5946" r="21.1081" transform="rotate(-180 342.595 57.5946)" stroke="#DBDBDB" stroke-width="0.594595"/>
<path d="M321 58H261.843C248.195 58 235.063 52.7859 225.133 43.4241L195.595 15.5759C185.665 6.21413 172.533 1 158.886 1H-7.67566e-06" stroke="url(#paint0_linear_1224_466)" stroke-width="0.594595"/>
<path d="M176.347 107.959V91.1453H177.884V107.959H176.347ZM180.631 107.959V96.2855H182.024V98.4472H182.312C182.6 97.8227 183.072 97.2703 183.729 96.7899C184.386 96.2935 185.338 96.0453 186.587 96.0453C187.436 96.0453 188.213 96.2214 188.917 96.5737C189.622 96.926 190.182 97.4624 190.599 98.183C191.031 98.8876 191.247 99.7763 191.247 100.849V107.959H189.806V100.945C189.806 99.6642 189.486 98.7435 188.845 98.183C188.205 97.6226 187.348 97.3423 186.275 97.3423C185.074 97.3423 184.073 97.7427 183.273 98.5433C182.472 99.3279 182.072 100.521 182.072 102.122V107.959H180.631ZM198.532 108.295C197.123 108.295 195.914 107.959 194.905 107.286C193.913 106.614 193.304 105.501 193.08 103.948L194.497 103.683C194.625 104.532 194.881 105.205 195.266 105.701C195.666 106.182 196.146 106.526 196.707 106.734C197.283 106.942 197.892 107.046 198.532 107.046C199.493 107.046 200.262 106.854 200.838 106.47C201.431 106.069 201.727 105.525 201.727 104.836C201.727 104.132 201.447 103.643 200.886 103.371C200.342 103.099 199.613 102.883 198.701 102.723L197.596 102.531C196.859 102.402 196.195 102.21 195.602 101.954C195.01 101.682 194.537 101.322 194.185 100.873C193.849 100.425 193.68 99.8644 193.68 99.1918C193.68 98.183 194.073 97.3904 194.857 96.8139C195.658 96.2374 196.715 95.9492 198.028 95.9492C199.357 95.9492 200.422 96.2534 201.223 96.8619C202.039 97.4544 202.552 98.3191 202.76 99.456L201.415 99.7443C201.255 98.8155 200.87 98.159 200.262 97.7747C199.669 97.3904 198.925 97.1982 198.028 97.1982C197.147 97.1982 196.443 97.3663 195.914 97.7026C195.386 98.0389 195.122 98.5353 195.122 99.1918C195.122 99.8324 195.362 100.305 195.842 100.609C196.323 100.897 196.979 101.113 197.812 101.258L198.917 101.45C199.717 101.578 200.438 101.77 201.078 102.026C201.719 102.266 202.223 102.611 202.592 103.059C202.976 103.507 203.168 104.1 203.168 104.836C203.168 105.941 202.752 106.798 201.919 107.407C201.086 107.999 199.958 108.295 198.532 108.295ZM205.145 107.959V96.2855H206.587V107.959H205.145ZM205.866 94.2678C205.514 94.2678 205.218 94.1477 204.977 93.9075C204.737 93.6673 204.617 93.3711 204.617 93.0188C204.617 92.6505 204.737 92.3543 204.977 92.1301C205.218 91.8899 205.514 91.7698 205.866 91.7698C206.234 91.7698 206.531 91.8899 206.755 92.1301C206.995 92.3543 207.115 92.6505 207.115 93.0188C207.115 93.3711 206.995 93.6673 206.755 93.9075C206.531 94.1477 206.234 94.2678 205.866 94.2678ZM208.804 102.17V101.882C208.804 100.649 209.053 99.5922 209.549 98.7114C210.061 97.8307 210.742 97.1502 211.591 96.6698C212.439 96.1894 213.384 95.9492 214.425 95.9492C215.706 95.9492 216.699 96.2054 217.403 96.7178C218.124 97.2142 218.652 97.7827 218.989 98.4232H219.277V96.2855H220.622V110.937C220.622 111.514 220.47 111.962 220.166 112.283C219.861 112.603 219.397 112.763 218.772 112.763H210.798V111.466H218.484C218.981 111.466 219.229 111.226 219.229 110.745V105.725H218.941C218.732 106.109 218.436 106.486 218.052 106.854C217.684 107.222 217.203 107.527 216.611 107.767C216.018 107.991 215.29 108.103 214.425 108.103C213.384 108.103 212.431 107.863 211.567 107.383C210.718 106.902 210.045 106.222 209.549 105.341C209.053 104.444 208.804 103.387 208.804 102.17ZM214.761 106.806C216.09 106.806 217.163 106.39 217.98 105.557C218.813 104.724 219.229 103.579 219.229 102.122V101.93C219.229 100.457 218.813 99.3119 217.98 98.4953C217.163 97.6626 216.09 97.2462 214.761 97.2462C213.448 97.2462 212.375 97.6626 211.543 98.4953C210.71 99.3119 210.294 100.457 210.294 101.93V102.122C210.294 103.579 210.71 104.724 211.543 105.557C212.375 106.39 213.448 106.806 214.761 106.806ZM223.398 107.959V91.1453H224.839V98.3271H225.127C225.319 97.9428 225.583 97.5825 225.92 97.2462C226.272 96.894 226.72 96.6137 227.265 96.4056C227.825 96.1814 228.522 96.0693 229.354 96.0693C230.203 96.0693 230.98 96.2454 231.684 96.5977C232.389 96.95 232.949 97.4784 233.366 98.183C233.798 98.8876 234.014 99.7763 234.014 100.849V107.959H232.573V100.945C232.573 99.6642 232.253 98.7515 231.612 98.207C230.972 97.6466 230.115 97.3663 229.042 97.3663C227.841 97.3663 226.84 97.7587 226.04 98.5433C225.239 99.3279 224.839 100.521 224.839 102.122V107.959H223.398ZM240.563 107.959C239.938 107.959 239.466 107.799 239.146 107.479C238.841 107.158 238.689 106.71 238.689 106.133V97.5825H234.942V96.2855H238.689V91.9139H240.13V96.2855H244.214V97.5825H240.13V105.941C240.13 106.422 240.371 106.662 240.851 106.662H243.589V107.959H240.563ZM245.941 107.959V91.1453H252.162C253.155 91.1453 254.044 91.3374 254.828 91.7217C255.629 92.09 256.261 92.6265 256.726 93.3311C257.19 94.0356 257.422 94.8923 257.422 95.9011V96.1894C257.422 97.1982 257.182 98.0629 256.702 98.7835C256.237 99.4881 255.605 100.025 254.804 100.393C254.02 100.761 253.139 100.945 252.162 100.945H247.478V107.959H245.941ZM247.478 99.5521H251.994C253.195 99.5521 254.14 99.2559 254.828 98.6634C255.533 98.0709 255.885 97.2382 255.885 96.1654V95.9252C255.885 94.8363 255.541 94.0036 254.852 93.4271C254.18 92.8346 253.227 92.5384 251.994 92.5384H247.478V99.5521ZM263.442 108.199C262.609 108.199 261.833 108.023 261.112 107.671C260.408 107.318 259.839 106.79 259.407 106.085C258.99 105.365 258.782 104.468 258.782 103.395V96.2855H260.223V103.299C260.223 104.564 260.544 105.485 261.184 106.061C261.825 106.622 262.681 106.902 263.754 106.902C264.955 106.902 265.956 106.51 266.757 105.725C267.557 104.925 267.958 103.724 267.958 102.122V96.2855H269.399V107.959H268.006V105.797H267.717C267.429 106.422 266.957 106.982 266.3 107.479C265.644 107.959 264.691 108.199 263.442 108.199ZM272.193 107.959V91.1453H273.634V107.959H272.193ZM281.064 108.295C279.655 108.295 278.446 107.959 277.437 107.286C276.444 106.614 275.836 105.501 275.612 103.948L277.029 103.683C277.157 104.532 277.413 105.205 277.797 105.701C278.198 106.182 278.678 106.526 279.239 106.734C279.815 106.942 280.424 107.046 281.064 107.046C282.025 107.046 282.794 106.854 283.37 106.47C283.962 106.069 284.259 105.525 284.259 104.836C284.259 104.132 283.978 103.643 283.418 103.371C282.874 103.099 282.145 102.883 281.232 102.723L280.127 102.531C279.391 102.402 278.726 102.21 278.134 101.954C277.541 101.682 277.069 101.322 276.717 100.873C276.38 100.425 276.212 99.8644 276.212 99.1918C276.212 98.183 276.604 97.3904 277.389 96.8139C278.19 96.2374 279.247 95.9492 280.56 95.9492C281.889 95.9492 282.954 96.2534 283.754 96.8619C284.571 97.4544 285.083 98.3191 285.292 99.456L283.946 99.7443C283.786 98.8155 283.402 98.159 282.794 97.7747C282.201 97.3904 281.456 97.1982 280.56 97.1982C279.679 97.1982 278.974 97.3663 278.446 97.7026C277.918 98.0389 277.653 98.5353 277.653 99.1918C277.653 99.8324 277.894 100.305 278.374 100.609C278.854 100.897 279.511 101.113 280.344 101.258L281.448 101.45C282.249 101.578 282.97 101.77 283.61 102.026C284.251 102.266 284.755 102.611 285.123 103.059C285.508 103.507 285.7 104.1 285.7 104.836C285.7 105.941 285.284 106.798 284.451 107.407C283.618 107.999 282.489 108.295 281.064 108.295ZM293.058 108.295C291.857 108.295 290.808 108.047 289.911 107.551C289.03 107.038 288.342 106.326 287.845 105.413C287.349 104.5 287.101 103.451 287.101 102.266V101.978C287.101 100.777 287.349 99.7283 287.845 98.8315C288.342 97.9188 289.022 97.2142 289.887 96.7178C290.768 96.2054 291.769 95.9492 292.889 95.9492C293.978 95.9492 294.939 96.1814 295.772 96.6458C296.62 97.0941 297.285 97.7507 297.765 98.6154C298.246 99.4641 298.486 100.481 298.486 101.666V102.434H288.542C288.59 103.892 289.03 105.021 289.863 105.821C290.712 106.606 291.777 106.998 293.058 106.998C294.146 106.998 294.987 106.75 295.58 106.254C296.188 105.757 296.653 105.149 296.973 104.428L298.27 105.005C298.03 105.533 297.693 106.053 297.261 106.566C296.845 107.062 296.3 107.479 295.628 107.815C294.955 108.135 294.098 108.295 293.058 108.295ZM288.566 101.185H297.021C296.957 99.9204 296.548 98.9516 295.796 98.2791C295.043 97.5905 294.074 97.2462 292.889 97.2462C291.72 97.2462 290.752 97.5905 289.983 98.2791C289.214 98.9516 288.742 99.9204 288.566 101.185Z" fill="white"/>
<circle cx="313.595" cy="99.4596" r="1.78378" fill="#D9D9D9"/>
<path d="M343.002 44C342.716 44 342.442 44.1135 342.24 44.3154C342.038 44.5174 341.925 44.7913 341.925 45.0769V52.6154C341.925 52.901 342.038 53.1749 342.24 53.3769C342.442 53.5788 342.716 53.6923 343.002 53.6923C343.95 53.6925 344.872 54.0056 345.624 54.583C346.376 55.1604 346.917 55.9698 347.162 56.8858C347.407 57.8017 347.343 58.773 346.98 59.649C346.617 60.525 345.976 61.2568 345.154 61.7308C344.333 62.2048 343.378 62.3946 342.438 62.2708C341.498 62.1469 340.625 61.7164 339.955 61.0458C339.284 60.3753 338.854 59.5023 338.73 58.5621C338.606 57.622 338.796 56.6673 339.27 55.8461C339.341 55.7236 339.387 55.5884 339.405 55.4482C339.424 55.3079 339.414 55.1654 339.378 55.0288C339.341 54.8921 339.278 54.764 339.192 54.6518C339.106 54.5396 338.998 54.4455 338.876 54.3748L332.347 50.6056C332.225 50.5348 332.089 50.4889 331.949 50.4705C331.809 50.452 331.666 50.4613 331.53 50.498C331.393 50.5346 331.265 50.5978 331.153 50.6839C331.04 50.7701 330.946 50.8775 330.876 51C329.335 53.6689 328.718 56.7717 329.12 59.8271C329.522 62.8826 330.921 65.7199 333.1 67.8992C335.279 70.0784 338.117 71.4777 341.172 71.8801C344.227 72.2825 347.33 71.6655 349.999 70.1248C352.668 68.5841 354.754 66.2057 355.934 63.3586C357.113 60.5115 357.321 57.3547 356.523 54.3778C355.726 51.401 353.969 48.7704 351.524 46.894C349.079 45.0177 346.084 44.0004 343.002 44ZM332.245 53.0327L336.944 55.7465C336.677 56.4677 336.54 57.2308 336.54 58C336.54 58.206 336.551 58.4038 336.57 58.6085L331.328 60.0192C330.919 57.6513 331.239 55.215 332.245 53.0327ZM331.885 62.0936L337.135 60.6883C337.574 61.6451 338.24 62.4804 339.074 63.1219C339.909 63.7635 340.887 64.1919 341.925 64.37V69.7963C339.695 69.5897 337.57 68.7568 335.793 67.3939C334.017 66.031 332.662 64.1936 331.885 62.0936ZM344.079 69.7963V64.37C345.584 64.1149 346.95 63.3352 347.935 62.1691C348.92 61.003 349.46 59.5258 349.46 57.9993C349.46 56.4728 348.92 54.9956 347.935 53.8295C346.95 52.6634 345.584 51.8837 344.079 51.6286V46.2023C347.022 46.4712 349.758 47.8303 351.75 50.013C353.742 52.1956 354.847 55.0441 354.847 57.9993C354.847 60.9545 353.742 63.803 351.75 65.9857C349.758 68.1683 347.022 69.5275 344.079 69.7963Z" fill="white"/>
<defs>
<linearGradient id="paint0_linear_1224_466" x1="321" y1="29.5" x2="-44.0588" y2="29.5" gradientUnits="userSpaceOnUse">
<stop stop-color="white"/>
<stop offset="0.820461" stop-color="#999999" stop-opacity="0"/>
</linearGradient>
</defs>
</svg>
