<svg width="497" height="122" viewBox="0 0 497 122" fill="none" xmlns="http://www.w3.org/2000/svg">
<path d="M497 59L438 59" stroke="white" stroke-width="0.5"/>
<circle cx="416.595" cy="59.4051" r="21.1081" transform="rotate(180 416.595 59.4051)" stroke="#DBDBDB" stroke-width="0.594595"/>
<path d="M395 59H343.895C331.974 59 320.394 55.0197 310.993 47.6904L265.609 12.3096C256.208 4.98031 244.628 1 232.707 1H0" stroke="url(#paint0_linear_1224_514)" stroke-width="0.594595"/>
<mask id="path-4-inside-1_1224_514" fill="white">
<path d="M407.443 66.8267C407.025 67.1712 406.963 67.7923 407.339 68.182C408.998 69.9003 411.12 71.1126 413.457 71.665C416.114 72.2928 418.903 72.0335 421.399 70.9269C423.894 69.8203 425.959 67.9271 427.278 65.5366C428.596 63.1461 429.095 60.3898 428.7 57.6887C428.304 54.9876 427.035 52.4902 425.087 50.5782C423.138 48.6661 420.618 47.4445 417.909 47.1C415.201 46.7554 412.455 47.3069 410.09 48.6701C408.009 49.8696 406.323 51.6396 405.227 53.7614C404.978 54.2426 405.216 54.8198 405.715 55.03V55.03C406.214 55.2401 406.785 55.0031 407.041 54.5256C407.966 52.7972 409.359 51.3549 411.069 50.3694C413.063 49.2201 415.379 48.7551 417.662 49.0456C419.945 49.3361 422.07 50.366 423.713 51.9781C425.356 53.5901 426.426 55.6956 426.759 57.9729C427.093 60.2502 426.672 62.574 425.56 64.5894C424.449 66.6048 422.708 68.201 420.604 69.134C418.5 70.0669 416.148 70.2855 413.908 69.7562C411.988 69.3024 410.24 68.3201 408.858 66.9296C408.476 66.5455 407.861 66.4822 407.443 66.8267V66.8267Z"/>
</mask>
<path d="M407.443 66.8267C407.025 67.1712 406.963 67.7923 407.339 68.182C408.998 69.9003 411.12 71.1126 413.457 71.665C416.114 72.2928 418.903 72.0335 421.399 70.9269C423.894 69.8203 425.959 67.9271 427.278 65.5366C428.596 63.1461 429.095 60.3898 428.7 57.6887C428.304 54.9876 427.035 52.4902 425.087 50.5782C423.138 48.6661 420.618 47.4445 417.909 47.1C415.201 46.7554 412.455 47.3069 410.09 48.6701C408.009 49.8696 406.323 51.6396 405.227 53.7614C404.978 54.2426 405.216 54.8198 405.715 55.03V55.03C406.214 55.2401 406.785 55.0031 407.041 54.5256C407.966 52.7972 409.359 51.3549 411.069 50.3694C413.063 49.2201 415.379 48.7551 417.662 49.0456C419.945 49.3361 422.07 50.366 423.713 51.9781C425.356 53.5901 426.426 55.6956 426.759 57.9729C427.093 60.2502 426.672 62.574 425.56 64.5894C424.449 66.6048 422.708 68.201 420.604 69.134C418.5 70.0669 416.148 70.2855 413.908 69.7562C411.988 69.3024 410.24 68.3201 408.858 66.9296C408.476 66.5455 407.861 66.4822 407.443 66.8267V66.8267Z" fill="#D9D9D9" stroke="white" stroke-width="1.51515" mask="url(#path-4-inside-1_1224_514)"/>
<path d="M431.875 59.2201L429.547 62.923L433.917 63.0877L431.875 59.2201ZM425.961 71.2058C425.786 71.3198 425.736 71.5544 425.85 71.7298C425.964 71.9052 426.199 71.955 426.374 71.841L426.168 71.5234L425.961 71.2058ZM431.746 62.6266L431.372 62.5669C430.88 65.6544 429.302 69.0349 425.961 71.2058L426.168 71.5234L426.374 71.841C429.938 69.525 431.603 65.9281 432.12 62.6862L431.746 62.6266Z" fill="white"/>
<path d="M405.243 68.7043L404.921 64.3422L401.304 66.8017L405.243 68.7043ZM402.896 55.5468C402.97 55.351 402.871 55.1326 402.675 55.059C402.479 54.9853 402.261 55.0844 402.187 55.2802L402.541 55.4135L402.896 55.5468ZM403.326 65.8854L403.663 65.7116C402.228 62.9336 401.494 59.2759 402.896 55.5468L402.541 55.4135L402.187 55.2802C400.691 59.2584 401.483 63.1423 402.989 66.0592L403.326 65.8854Z" fill="white"/>
<path d="M422.136 58.965L418.271 57.5604L416.867 53.696C416.797 53.5095 416.673 53.3486 416.509 53.235C416.346 53.1214 416.152 53.0605 415.953 53.0605C415.754 53.0605 415.56 53.1214 415.397 53.235C415.233 53.3486 415.109 53.5095 415.039 53.696L413.635 57.5604L409.77 58.965C409.584 59.0343 409.423 59.1589 409.309 59.3223C409.196 59.4856 409.135 59.6798 409.135 59.8787C409.135 60.0777 409.196 60.2719 409.309 60.4352C409.423 60.5985 409.584 60.7232 409.77 60.7924L413.635 62.1977L415.039 66.0614C415.109 66.248 415.233 66.4088 415.397 66.5224C415.56 66.636 415.754 66.6969 415.953 66.6969C416.152 66.6969 416.346 66.636 416.509 66.5224C416.673 66.4088 416.797 66.248 416.867 66.0614L418.272 62.1971L422.136 60.7924C422.322 60.7232 422.483 60.5985 422.597 60.4352C422.71 60.2719 422.771 60.0777 422.771 59.8787C422.771 59.6798 422.71 59.4856 422.597 59.3223C422.483 59.1589 422.322 59.0343 422.136 58.965ZM417.724 61.3589C417.658 61.3833 417.597 61.4219 417.547 61.4722C417.496 61.5225 417.458 61.5832 417.433 61.6501L416.097 60.5284L414.473 61.6501C414.448 61.5832 414.41 61.5225 414.359 61.4722C414.309 61.4219 414.248 61.3833 414.182 61.3589L410.111 59.8787L415.039 62.622C415.8 65.4016 418.718 59.568 418.769 59.5177C418.819 59.4674 414.448 58.1742 414.473 58.1074L419.202 59.8787L417.433 58.1074C417.458 58.1742 417.496 58.2349 417.547 58.2852C417.597 58.3355 417.658 58.3742 417.724 58.3985L414.359 59.5177L417.724 61.3589Z" fill="white"/>
<path d="M222.687 115.376C220.717 115.376 219.14 114.8 217.955 113.647C216.786 112.478 216.201 110.773 216.201 108.531V104.736C216.201 102.494 216.786 100.796 217.955 99.6435C219.14 98.4745 220.717 97.8901 222.687 97.8901C224.64 97.8901 226.129 98.4425 227.154 99.5474C228.195 100.636 228.716 102.126 228.716 104.015V104.135H227.178V103.967C227.178 102.59 226.81 101.469 226.073 100.604C225.353 99.7235 224.224 99.2832 222.687 99.2832C221.133 99.2832 219.916 99.7556 219.036 100.7C218.171 101.645 217.739 102.974 217.739 104.688V108.579C217.739 110.292 218.171 111.621 219.036 112.566C219.916 113.511 221.133 113.983 222.687 113.983C224.224 113.983 225.353 113.551 226.073 112.686C226.81 111.805 227.178 110.676 227.178 109.299V108.939H228.716V109.251C228.716 111.141 228.195 112.638 227.154 113.743C226.129 114.832 224.64 115.376 222.687 115.376ZM236.057 115.376C234.872 115.376 233.831 115.128 232.934 114.632C232.053 114.119 231.365 113.415 230.868 112.518C230.388 111.605 230.148 110.548 230.148 109.347V109.059C230.148 107.858 230.388 106.809 230.868 105.913C231.365 105 232.053 104.295 232.934 103.799C233.831 103.286 234.872 103.03 236.057 103.03C237.242 103.03 238.274 103.286 239.155 103.799C240.052 104.295 240.74 105 241.221 105.913C241.717 106.809 241.965 107.858 241.965 109.059V109.347C241.965 110.548 241.717 111.605 241.221 112.518C240.74 113.415 240.052 114.119 239.155 114.632C238.274 115.128 237.242 115.376 236.057 115.376ZM236.057 114.079C237.434 114.079 238.523 113.647 239.323 112.782C240.124 111.901 240.524 110.741 240.524 109.299V109.107C240.524 107.666 240.124 106.513 239.323 105.648C238.523 104.768 237.434 104.327 236.057 104.327C234.695 104.327 233.607 104.768 232.79 105.648C231.989 106.513 231.589 107.666 231.589 109.107V109.299C231.589 110.741 231.989 111.901 232.79 112.782C233.607 113.647 234.695 114.079 236.057 114.079ZM249.222 115.376C248.181 115.376 247.237 115.136 246.388 114.656C245.539 114.159 244.859 113.463 244.346 112.566C243.85 111.653 243.602 110.58 243.602 109.347V109.059C243.602 107.826 243.85 106.761 244.346 105.865C244.843 104.952 245.515 104.255 246.364 103.775C247.229 103.278 248.181 103.03 249.222 103.03C250.087 103.03 250.815 103.15 251.408 103.391C252 103.615 252.481 103.911 252.849 104.279C253.233 104.632 253.53 105.008 253.738 105.408H254.026V98.2263H255.467V115.04H254.074V112.902H253.786C253.45 113.543 252.921 114.119 252.201 114.632C251.496 115.128 250.503 115.376 249.222 115.376ZM249.558 114.079C250.887 114.079 251.96 113.655 252.777 112.806C253.61 111.958 254.026 110.789 254.026 109.299V109.107C254.026 107.618 253.61 106.449 252.777 105.6C251.96 104.752 250.887 104.327 249.558 104.327C248.245 104.327 247.172 104.752 246.34 105.6C245.507 106.449 245.091 107.618 245.091 109.107V109.299C245.091 110.789 245.507 111.958 246.34 112.806C247.172 113.655 248.245 114.079 249.558 114.079ZM263.646 115.376C262.445 115.376 261.396 115.128 260.499 114.632C259.618 114.119 258.93 113.407 258.433 112.494C257.937 111.581 257.689 110.532 257.689 109.347V109.059C257.689 107.858 257.937 106.809 258.433 105.913C258.93 105 259.61 104.295 260.475 103.799C261.356 103.286 262.356 103.03 263.477 103.03C264.566 103.03 265.527 103.262 266.36 103.727C267.208 104.175 267.873 104.832 268.353 105.696C268.834 106.545 269.074 107.562 269.074 108.747V109.516H259.13C259.178 110.973 259.618 112.102 260.451 112.902C261.3 113.687 262.364 114.079 263.646 114.079C264.734 114.079 265.575 113.831 266.168 113.335C266.776 112.838 267.24 112.23 267.561 111.509L268.858 112.086C268.618 112.614 268.281 113.134 267.849 113.647C267.433 114.143 266.888 114.56 266.216 114.896C265.543 115.216 264.686 115.376 263.646 115.376ZM259.154 108.267H267.609C267.545 107.001 267.136 106.033 266.384 105.36C265.631 104.672 264.662 104.327 263.477 104.327C262.308 104.327 261.34 104.672 260.571 105.36C259.802 106.033 259.33 107.001 259.154 108.267ZM281.36 115.376C280.159 115.376 279.086 115.168 278.141 114.752C277.196 114.319 276.452 113.671 275.907 112.806C275.363 111.925 275.091 110.813 275.091 109.467V109.011H276.628V109.467C276.628 111.021 277.068 112.174 277.949 112.926C278.846 113.663 279.983 114.031 281.36 114.031C282.753 114.031 283.826 113.711 284.578 113.07C285.331 112.414 285.707 111.581 285.707 110.572C285.707 109.9 285.539 109.363 285.203 108.963C284.883 108.547 284.426 108.218 283.834 107.978C283.257 107.722 282.585 107.498 281.816 107.306L280.279 106.921C279.366 106.681 278.549 106.385 277.829 106.033C277.108 105.664 276.54 105.192 276.124 104.616C275.707 104.023 275.499 103.27 275.499 102.358C275.499 101.445 275.731 100.652 276.196 99.9798C276.676 99.3072 277.333 98.7948 278.165 98.4425C278.998 98.0742 279.967 97.8901 281.072 97.8901C282.176 97.8901 283.169 98.0822 284.05 98.4665C284.947 98.8508 285.651 99.4193 286.164 100.172C286.692 100.909 286.956 101.837 286.956 102.958V104.087H285.419V102.958C285.419 102.077 285.227 101.365 284.843 100.82C284.458 100.276 283.938 99.8757 283.281 99.6195C282.625 99.3633 281.888 99.2351 281.072 99.2351C279.903 99.2351 278.934 99.5074 278.165 100.052C277.413 100.58 277.036 101.349 277.036 102.358C277.036 103.03 277.188 103.567 277.493 103.967C277.813 104.367 278.253 104.688 278.814 104.928C279.39 105.168 280.063 105.384 280.831 105.576L282.369 105.961C283.249 106.169 284.058 106.449 284.795 106.801C285.531 107.138 286.124 107.61 286.572 108.218C287.02 108.811 287.245 109.596 287.245 110.572C287.245 111.549 286.996 112.398 286.5 113.118C286.02 113.839 285.339 114.4 284.458 114.8C283.578 115.184 282.545 115.376 281.36 115.376ZM290.732 119.844V118.547H297.554C298.034 118.547 298.275 118.307 298.275 117.826V113.022H297.986C297.794 113.407 297.522 113.775 297.17 114.127C296.833 114.464 296.385 114.744 295.825 114.968C295.28 115.176 294.592 115.28 293.759 115.28C292.926 115.28 292.15 115.104 291.429 114.752C290.724 114.4 290.156 113.871 289.724 113.167C289.307 112.462 289.099 111.573 289.099 110.5V103.367H290.54V110.404C290.54 111.669 290.861 112.582 291.501 113.142C292.142 113.703 292.998 113.983 294.071 113.983C295.272 113.983 296.273 113.591 297.074 112.806C297.874 112.022 298.275 110.829 298.275 109.227V103.367H299.716V118.018C299.716 118.595 299.556 119.043 299.235 119.364C298.931 119.684 298.467 119.844 297.842 119.844H290.732ZM302.51 115.04V103.367H303.903V105.528H304.191C304.48 104.904 304.952 104.351 305.608 103.871C306.265 103.375 307.218 103.126 308.467 103.126C309.316 103.126 310.092 103.302 310.797 103.655C311.501 104.007 312.062 104.543 312.478 105.264C312.91 105.969 313.127 106.857 313.127 107.93V115.04H311.685V108.026C311.685 106.745 311.365 105.825 310.725 105.264C310.084 104.704 309.227 104.423 308.155 104.423C306.954 104.423 305.953 104.824 305.152 105.624C304.351 106.409 303.951 107.602 303.951 109.203V115.04H302.51ZM321.108 115.376C319.972 115.376 318.955 115.136 318.058 114.656C317.177 114.159 316.481 113.455 315.968 112.542C315.456 111.629 315.2 110.556 315.2 109.323V109.083C315.2 107.834 315.456 106.761 315.968 105.865C316.481 104.952 317.177 104.255 318.058 103.775C318.955 103.278 319.972 103.03 321.108 103.03C322.229 103.03 323.174 103.246 323.943 103.679C324.727 104.095 325.336 104.648 325.768 105.336C326.217 106.009 326.497 106.721 326.609 107.474L325.192 107.762C325.112 107.138 324.912 106.569 324.591 106.057C324.271 105.528 323.823 105.112 323.246 104.808C322.67 104.487 321.957 104.327 321.108 104.327C320.26 104.327 319.499 104.527 318.827 104.928C318.154 105.312 317.618 105.865 317.217 106.585C316.833 107.29 316.641 108.13 316.641 109.107V109.299C316.641 110.276 316.833 111.125 317.217 111.845C317.618 112.55 318.154 113.102 318.827 113.503C319.499 113.887 320.26 114.079 321.108 114.079C322.39 114.079 323.366 113.751 324.039 113.094C324.711 112.422 325.128 111.605 325.288 110.644L326.705 110.933C326.561 111.685 326.257 112.406 325.792 113.094C325.344 113.767 324.727 114.319 323.943 114.752C323.174 115.168 322.229 115.376 321.108 115.376ZM328.808 115.04V98.2263H330.249V105.408H330.537C330.729 105.024 330.993 104.664 331.33 104.327C331.682 103.975 332.13 103.695 332.675 103.487C333.235 103.262 333.932 103.15 334.765 103.15C335.613 103.15 336.39 103.326 337.094 103.679C337.799 104.031 338.359 104.559 338.776 105.264C339.208 105.969 339.424 106.857 339.424 107.93V115.04H337.983V108.026C337.983 106.745 337.663 105.833 337.022 105.288C336.382 104.728 335.525 104.447 334.452 104.447C333.251 104.447 332.25 104.84 331.45 105.624C330.649 106.409 330.249 107.602 330.249 109.203V115.04H328.808ZM342.074 115.04V103.367H343.515V115.04H342.074ZM342.794 101.349C342.442 101.349 342.146 101.229 341.906 100.989C341.665 100.748 341.545 100.452 341.545 100.1C341.545 99.7316 341.665 99.4353 341.906 99.2111C342.146 98.9709 342.442 98.8508 342.794 98.8508C343.163 98.8508 343.459 98.9709 343.683 99.2111C343.923 99.4353 344.043 99.7316 344.043 100.1C344.043 100.452 343.923 100.748 343.683 100.989C343.459 101.229 343.163 101.349 342.794 101.349ZM346.309 115.04V103.367H347.702V105.528H347.99C348.279 104.904 348.751 104.351 349.408 103.871C350.064 103.375 351.017 103.126 352.266 103.126C353.115 103.126 353.891 103.302 354.596 103.655C355.3 104.007 355.861 104.543 356.277 105.264C356.71 105.969 356.926 106.857 356.926 107.93V115.04H355.485V108.026C355.485 106.745 355.164 105.825 354.524 105.264C353.883 104.704 353.027 104.423 351.954 104.423C350.753 104.423 349.752 104.824 348.951 105.624C348.151 106.409 347.75 107.602 347.75 109.203V115.04H346.309ZM358.999 109.251V108.963C358.999 107.73 359.247 106.673 359.743 105.792C360.256 104.912 360.936 104.231 361.785 103.751C362.634 103.27 363.579 103.03 364.619 103.03C365.9 103.03 366.893 103.286 367.598 103.799C368.318 104.295 368.847 104.864 369.183 105.504H369.471V103.367H370.816V118.018C370.816 118.595 370.664 119.043 370.36 119.364C370.056 119.684 369.591 119.844 368.967 119.844H360.992V118.547H368.679C369.175 118.547 369.423 118.307 369.423 117.826V112.806H369.135C368.927 113.191 368.631 113.567 368.246 113.935C367.878 114.303 367.398 114.608 366.805 114.848C366.213 115.072 365.484 115.184 364.619 115.184C363.579 115.184 362.626 114.944 361.761 114.464C360.912 113.983 360.24 113.303 359.743 112.422C359.247 111.525 358.999 110.468 358.999 109.251ZM364.956 113.887C366.285 113.887 367.358 113.471 368.174 112.638C369.007 111.805 369.423 110.66 369.423 109.203V109.011C369.423 107.538 369.007 106.393 368.174 105.576C367.358 104.744 366.285 104.327 364.956 104.327C363.643 104.327 362.57 104.744 361.737 105.576C360.904 106.393 360.488 107.538 360.488 109.011V109.203C360.488 110.66 360.904 111.805 361.737 112.638C362.57 113.471 363.643 113.887 364.956 113.887Z" fill="white"/>
<circle cx="386.595" cy="106.541" r="1.78378" fill="#D9D9D9"/>
<defs>
<linearGradient id="paint0_linear_1224_514" x1="395" y1="30" x2="-54.2157" y2="30" gradientUnits="userSpaceOnUse">
<stop stop-color="white"/>
<stop offset="0.820461" stop-color="#999999" stop-opacity="0"/>
</linearGradient>
</defs>
</svg>
