<svg width="1440" height="559" viewBox="0 0 1440 559" fill="none" xmlns="http://www.w3.org/2000/svg">
<g clip-path="url(#clip0_1224_637)">
<circle cx="0.786362" cy="0.786362" r="0.786362" transform="matrix(0.632059 -0.774921 0.934786 0.355211 1350.64 403.382)" fill="white"/>
<circle cx="0.793718" cy="0.793718" r="0.793718" transform="matrix(0.632059 -0.774921 0.934786 0.355211 1293.06 258.189)" fill="white"/>
<circle cx="0.562293" cy="0.562293" r="0.562293" transform="matrix(0.632059 -0.774921 0.934786 0.355211 1373.97 13.3643)" fill="white"/>
<circle cx="0.569167" cy="0.569167" r="0.569167" transform="matrix(0.632059 -0.774921 0.934786 0.355211 1191.66 396.96)" fill="white"/>
<circle cx="0.547435" cy="0.547435" r="0.547435" transform="matrix(0.632059 -0.774921 0.934786 0.355211 1316.07 329.73)" fill="white"/>
<circle cx="0.631896" cy="0.631896" r="0.631896" transform="matrix(0.632059 -0.774921 0.934786 0.355211 1333.34 345.485)" fill="white"/>
<circle cx="0.594511" cy="0.594511" r="0.594511" transform="matrix(0.632059 -0.774921 0.934786 0.355211 1174.69 365.706)" fill="white"/>
<circle cx="0.806326" cy="0.806326" r="0.806326" transform="matrix(0.632059 -0.774921 0.934786 0.355211 1215.97 344.288)" fill="white"/>
<circle cx="0.852791" cy="0.852791" r="0.852791" transform="matrix(0.632059 -0.774921 0.934786 0.355211 1058.76 166.093)" fill="white"/>
<circle cx="0.507788" cy="0.507788" r="0.507788" transform="matrix(0.632059 -0.774921 0.934786 0.355211 1088.27 136.424)" fill="white"/>
<circle cx="0.64939" cy="0.64939" r="0.64939" transform="matrix(0.632059 -0.774921 0.934786 0.355211 1083.42 129.131)" fill="white"/>
<circle cx="0.959025" cy="0.959025" r="0.959025" transform="matrix(0.632059 -0.774921 0.934786 0.355211 985.204 355.489)" fill="white"/>
<circle cx="0.575599" cy="0.575599" r="0.575599" transform="matrix(0.632059 -0.774921 0.934786 0.355211 1304.87 130.53)" fill="white"/>
<circle cx="0.71915" cy="0.71915" r="0.71915" transform="matrix(0.632059 -0.774921 0.934786 0.355211 1317.37 84.4424)" fill="white"/>
<circle cx="0.706402" cy="0.706402" r="0.706402" transform="matrix(0.632059 -0.774921 0.934786 0.355211 1353.6 239.062)" fill="white"/>
<circle cx="0.907128" cy="0.907128" r="0.907128" transform="matrix(0.632059 -0.774921 0.934786 0.355211 1120.52 121.333)" fill="white"/>
<circle cx="0.750355" cy="0.750355" r="0.750355" transform="matrix(0.632059 -0.774921 0.934786 0.355211 1065.11 308.512)" fill="white"/>
<circle cx="0.807869" cy="0.807869" r="0.807869" transform="matrix(0.632059 -0.774921 0.934786 0.355211 1289.14 442.752)" fill="white"/>
<circle cx="0.822197" cy="0.822197" r="0.822197" transform="matrix(0.632059 -0.774921 0.934786 0.355211 1410.06 59.5225)" fill="white"/>
</g>
<g clip-path="url(#clip1_1224_637)">
<circle cx="0.852791" cy="0.852791" r="0.852791" transform="matrix(0.980724 -0.1954 0.393215 0.919447 722.227 291.202)" fill="white"/>
<circle cx="0.507788" cy="0.507788" r="0.507788" transform="matrix(0.980724 -0.1954 0.393215 0.919447 763.429 287.318)" fill="white"/>
<circle cx="0.64939" cy="0.64939" r="0.64939" transform="matrix(0.980724 -0.1954 0.393215 0.919447 765.227 278.162)" fill="white"/>
<circle cx="0.959025" cy="0.959025" r="0.959025" transform="matrix(0.980724 -0.1954 0.393215 0.919447 538.224 393.8)" fill="white"/>
<circle cx="0.575599" cy="0.575599" r="0.575599" transform="matrix(0.980724 -0.1954 0.393215 0.919447 916.652 429.368)" fill="white"/>
<circle cx="0.71915" cy="0.71915" r="0.71915" transform="matrix(0.980724 -0.1954 0.393215 0.919447 957.709 400.741)" fill="white"/>
<circle cx="0.907128" cy="0.907128" r="0.907128" transform="matrix(0.980724 -0.1954 0.393215 0.919447 796.25 297.026)" fill="white"/>
<circle cx="0.750355" cy="0.750355" r="0.750355" transform="matrix(0.980724 -0.1954 0.393215 0.919447 626.299 410.14)" fill="white"/>
<circle cx="0.545352" cy="0.545352" r="0.545352" transform="matrix(0.980724 -0.1954 0.393215 0.919447 991.511 301.545)" fill="white"/>
</g>
<g clip-path="url(#clip2_1224_637)">
<circle cx="0.672314" cy="0.672314" r="0.672314" transform="matrix(0.572539 0.819877 -0.95094 0.309374 571.605 556.014)" fill="white"/>
<circle cx="0.786362" cy="0.786362" r="0.786362" transform="matrix(0.572539 0.819877 -0.95094 0.309374 74.8969 268.269)" fill="white"/>
<circle cx="0.793718" cy="0.793718" r="0.793718" transform="matrix(0.572539 0.819877 -0.95094 0.309374 281.129 323.4)" fill="white"/>
<circle cx="0.856052" cy="0.856052" r="0.856052" transform="matrix(0.572539 0.819877 -0.95094 0.309374 9.15417 404.893)" fill="white"/>
<circle cx="0.562293" cy="0.562293" r="0.562293" transform="matrix(0.572539 0.819877 -0.95094 0.309374 528.802 515.961)" fill="white"/>
<circle cx="0.569167" cy="0.569167" r="0.569167" transform="matrix(0.572539 0.819877 -0.95094 0.309374 171.973 183.174)" fill="white"/>
<circle cx="0.547435" cy="0.547435" r="0.547435" transform="matrix(0.572539 0.819877 -0.95094 0.309374 182.527 293.233)" fill="white"/>
<circle cx="0.631896" cy="0.631896" r="0.631896" transform="matrix(0.572539 0.819877 -0.95094 0.309374 153.949 293.422)" fill="white"/>
<circle cx="0.83687" cy="0.83687" r="0.83687" transform="matrix(0.572539 0.819877 -0.95094 0.309374 27.4094 537.39)" fill="white"/>
<circle cx="0.58318" cy="0.58318" r="0.58318" transform="matrix(0.572539 0.819877 -0.95094 0.309374 105.736 415.575)" fill="white"/>
<circle cx="0.547262" cy="0.547262" r="0.547262" transform="matrix(0.572539 0.819877 -0.95094 0.309374 179.975 467.578)" fill="white"/>
<circle cx="0.594511" cy="0.594511" r="0.594511" transform="matrix(0.572539 0.819877 -0.95094 0.309374 218.941 192.48)" fill="white"/>
<circle cx="0.806326" cy="0.806326" r="0.806326" transform="matrix(0.572539 0.819877 -0.95094 0.309374 221.373 228.469)" fill="white"/>
<circle cx="0.62381" cy="0.62381" r="0.62381" transform="matrix(0.572539 0.819877 -0.95094 0.309374 106.338 524.475)" fill="white"/>
<circle cx="0.852791" cy="0.852791" r="0.852791" transform="matrix(0.572539 0.819877 -0.95094 0.309374 523.145 247.702)" fill="white"/>
<circle cx="0.507788" cy="0.507788" r="0.507788" transform="matrix(0.572539 0.819877 -0.95094 0.309374 542.082 282.063)" fill="white"/>
<circle cx="0.999194" cy="0.999194" r="0.999194" transform="matrix(0.572539 0.819877 -0.95094 0.309374 219.957 446.393)" fill="white"/>
<circle cx="0.616531" cy="0.616531" r="0.616531" transform="matrix(0.572539 0.819877 -0.95094 0.309374 7.68713 399.723)" fill="white"/>
<circle cx="0.64939" cy="0.64939" r="0.64939" transform="matrix(0.572539 0.819877 -0.95094 0.309374 553.54 283.737)" fill="white"/>
<circle cx="0.959025" cy="0.959025" r="0.959025" transform="matrix(0.572539 0.819877 -0.95094 0.309374 337.715 92.5986)" fill="white"/>
<circle cx="0.827206" cy="0.827206" r="0.827206" transform="matrix(0.572539 0.819877 -0.95094 0.309374 694.055 541.23)" fill="white"/>
<circle cx="0.575599" cy="0.575599" r="0.575599" transform="matrix(0.572539 0.819877 -0.95094 0.309374 427.353 406.81)" fill="white"/>
<circle cx="0.700454" cy="0.700454" r="0.700454" transform="matrix(0.572539 0.819877 -0.95094 0.309374 113.123 473.808)" fill="white"/>
<circle cx="0.71915" cy="0.71915" r="0.71915" transform="matrix(0.572539 0.819877 -0.95094 0.309374 475.513 441.529)" fill="white"/>
<circle cx="0.706402" cy="0.706402" r="0.706402" transform="matrix(0.572539 0.819877 -0.95094 0.309374 269.996 368.783)" fill="white"/>
<circle cx="0.907128" cy="0.907128" r="0.907128" transform="matrix(0.572539 0.819877 -0.95094 0.309374 542.02 309.187)" fill="white"/>
<circle cx="0.91798" cy="0.91798" r="0.91798" transform="matrix(0.572539 0.819877 -0.95094 0.309374 700.339 548.643)" fill="white"/>
<circle cx="0.851087" cy="0.851087" r="0.851087" transform="matrix(0.572539 0.819877 -0.95094 0.309374 316.19 488.098)" fill="white"/>
<circle cx="0.653873" cy="0.653873" r="0.653873" transform="matrix(0.572539 0.819877 -0.95094 0.309374 341.515 550.426)" fill="white"/>
<circle cx="0.750355" cy="0.750355" r="0.750355" transform="matrix(0.572539 0.819877 -0.95094 0.309374 349.04 165.571)" fill="white"/>
<circle cx="0.807869" cy="0.807869" r="0.807869" transform="matrix(0.572539 0.819877 -0.95094 0.309374 62.3298 210.172)" fill="white"/>
<circle cx="0.822197" cy="0.822197" r="0.822197" transform="matrix(0.572539 0.819877 -0.95094 0.309374 453.238 508.387)" fill="white"/>
<circle cx="0.545352" cy="0.545352" r="0.545352" transform="matrix(0.572539 0.819877 -0.95094 0.309374 604.638 471.581)" fill="white"/>
</g>
<defs>
<clipPath id="clip0_1224_637">
<rect width="434.604" height="342.695" fill="white" transform="matrix(0.632059 -0.774921 0.934786 0.355211 895.997 336.784)"/>
</clipPath>
<clipPath id="clip1_1224_637">
<rect width="437.752" height="202.179" fill="white" transform="matrix(0.980724 -0.1954 0.393215 0.919447 490 318.287)"/>
</clipPath>
<clipPath id="clip2_1224_637">
<rect width="505.012" height="446.158" fill="white" transform="matrix(0.572539 0.819877 -0.95094 0.309374 410.27 53.9346)"/>
</clipPath>
</defs>
</svg>
