<svg width="1421" height="782" viewBox="0 0 1421 782" fill="none" xmlns="http://www.w3.org/2000/svg">
<path fill-rule="evenodd" clip-rule="evenodd" d="M71 1H1V71H71V1ZM0 0V72H72V0H0Z" fill="#3B3B3B"/>
<path fill-rule="evenodd" clip-rule="evenodd" d="M142 1H72V71H142V1ZM71 0V72H143V0H71Z" fill="#3B3B3B"/>
<path fill-rule="evenodd" clip-rule="evenodd" d="M213 1H143V71H213V1ZM142 0V72H214V0H142Z" fill="#3B3B3B"/>
<path fill-rule="evenodd" clip-rule="evenodd" d="M284 1H214V71H284V1ZM213 0V72H285V0H213Z" fill="#3B3B3B"/>
<path fill-rule="evenodd" clip-rule="evenodd" d="M355 1H285V71H355V1ZM284 0V72H356V0H284Z" fill="#3B3B3B"/>
<path fill-rule="evenodd" clip-rule="evenodd" d="M426 1H356V71H426V1ZM355 0V72H427V0H355Z" fill="#3B3B3B"/>
<path fill-rule="evenodd" clip-rule="evenodd" d="M497 1H427V71H497V1ZM426 0V72H498V0H426Z" fill="#3B3B3B"/>
<path fill-rule="evenodd" clip-rule="evenodd" d="M568 1H498V71H568V1ZM497 0V72H569V0H497Z" fill="#3B3B3B"/>
<path fill-rule="evenodd" clip-rule="evenodd" d="M639 1H569V71H639V1ZM568 0V72H640V0H568Z" fill="#3B3B3B"/>
<path fill-rule="evenodd" clip-rule="evenodd" d="M710 1H640V71H710V1ZM639 0V72H711V0H639Z" fill="#3B3B3B"/>
<path fill-rule="evenodd" clip-rule="evenodd" d="M781 1H711V71H781V1ZM710 0V72H782V0H710Z" fill="#3B3B3B"/>
<path fill-rule="evenodd" clip-rule="evenodd" d="M852 1H782V71H852V1ZM781 0V72H853V0H781Z" fill="#3B3B3B"/>
<path fill-rule="evenodd" clip-rule="evenodd" d="M923 1H853V71H923V1ZM852 0V72H924V0H852Z" fill="#3B3B3B"/>
<path fill-rule="evenodd" clip-rule="evenodd" d="M994 1H924V71H994V1ZM923 0V72H995V0H923Z" fill="#3B3B3B"/>
<path fill-rule="evenodd" clip-rule="evenodd" d="M1065 1H995V71H1065V1ZM994 0V72H1066V0H994Z" fill="#3B3B3B"/>
<path fill-rule="evenodd" clip-rule="evenodd" d="M1136 1H1066V71H1136V1ZM1065 0V72H1137V0H1065Z" fill="#3B3B3B"/>
<path fill-rule="evenodd" clip-rule="evenodd" d="M1207 1H1137V71H1207V1ZM1136 0V72H1208V0H1136Z" fill="#3B3B3B"/>
<path fill-rule="evenodd" clip-rule="evenodd" d="M1278 1H1208V71H1278V1ZM1207 0V72H1279V0H1207Z" fill="#3B3B3B"/>
<path fill-rule="evenodd" clip-rule="evenodd" d="M1349 1H1279V71H1349V1ZM1278 0V72H1350V0H1278Z" fill="#3B3B3B"/>
<path fill-rule="evenodd" clip-rule="evenodd" d="M1420 1H1350V71H1420V1ZM1349 0V72H1421V0H1349Z" fill="#3B3B3B"/>
<path fill-rule="evenodd" clip-rule="evenodd" d="M71 72H1V142H71V72ZM0 71V143H72V71H0Z" fill="#3B3B3B"/>
<path fill-rule="evenodd" clip-rule="evenodd" d="M142 72H72V142H142V72ZM71 71V143H143V71H71Z" fill="#3B3B3B"/>
<path fill-rule="evenodd" clip-rule="evenodd" d="M213 72H143V142H213V72ZM142 71V143H214V71H142Z" fill="#3B3B3B"/>
<path fill-rule="evenodd" clip-rule="evenodd" d="M284 72H214V142H284V72ZM213 71V143H285V71H213Z" fill="#3B3B3B"/>
<path fill-rule="evenodd" clip-rule="evenodd" d="M355 72H285V142H355V72ZM284 71V143H356V71H284Z" fill="#3B3B3B"/>
<path fill-rule="evenodd" clip-rule="evenodd" d="M426 72H356V142H426V72ZM355 71V143H427V71H355Z" fill="#3B3B3B"/>
<path fill-rule="evenodd" clip-rule="evenodd" d="M497 72H427V142H497V72ZM426 71V143H498V71H426Z" fill="#3B3B3B"/>
<path fill-rule="evenodd" clip-rule="evenodd" d="M568 72H498V142H568V72ZM497 71V143H569V71H497Z" fill="#3B3B3B"/>
<path fill-rule="evenodd" clip-rule="evenodd" d="M639 72H569V142H639V72ZM568 71V143H640V71H568Z" fill="#3B3B3B"/>
<path fill-rule="evenodd" clip-rule="evenodd" d="M710 72H640V142H710V72ZM639 71V143H711V71H639Z" fill="#3B3B3B"/>
<path fill-rule="evenodd" clip-rule="evenodd" d="M781 72H711V142H781V72ZM710 71V143H782V71H710Z" fill="#3B3B3B"/>
<path fill-rule="evenodd" clip-rule="evenodd" d="M852 72H782V142H852V72ZM781 71V143H853V71H781Z" fill="#3B3B3B"/>
<path fill-rule="evenodd" clip-rule="evenodd" d="M923 72H853V142H923V72ZM852 71V143H924V71H852Z" fill="#3B3B3B"/>
<path fill-rule="evenodd" clip-rule="evenodd" d="M994 72H924V142H994V72ZM923 71V143H995V71H923Z" fill="#3B3B3B"/>
<path fill-rule="evenodd" clip-rule="evenodd" d="M1065 72H995V142H1065V72ZM994 71V143H1066V71H994Z" fill="#3B3B3B"/>
<path fill-rule="evenodd" clip-rule="evenodd" d="M1136 72H1066V142H1136V72ZM1065 71V143H1137V71H1065Z" fill="#3B3B3B"/>
<path fill-rule="evenodd" clip-rule="evenodd" d="M1207 72H1137V142H1207V72ZM1136 71V143H1208V71H1136Z" fill="#3B3B3B"/>
<path fill-rule="evenodd" clip-rule="evenodd" d="M1278 72H1208V142H1278V72ZM1207 71V143H1279V71H1207Z" fill="#3B3B3B"/>
<path fill-rule="evenodd" clip-rule="evenodd" d="M1349 72H1279V142H1349V72ZM1278 71V143H1350V71H1278Z" fill="#3B3B3B"/>
<path fill-rule="evenodd" clip-rule="evenodd" d="M1420 72H1350V142H1420V72ZM1349 71V143H1421V71H1349Z" fill="#3B3B3B"/>
<path fill-rule="evenodd" clip-rule="evenodd" d="M71 143H1V213H71V143ZM0 142V214H72V142H0Z" fill="#3B3B3B"/>
<path fill-rule="evenodd" clip-rule="evenodd" d="M142 143H72V213H142V143ZM71 142V214H143V142H71Z" fill="#3B3B3B"/>
<path fill-rule="evenodd" clip-rule="evenodd" d="M213 143H143V213H213V143ZM142 142V214H214V142H142Z" fill="#3B3B3B"/>
<path fill-rule="evenodd" clip-rule="evenodd" d="M284 143H214V213H284V143ZM213 142V214H285V142H213Z" fill="#3B3B3B"/>
<path fill-rule="evenodd" clip-rule="evenodd" d="M355 143H285V213H355V143ZM284 142V214H356V142H284Z" fill="#3B3B3B"/>
<path fill-rule="evenodd" clip-rule="evenodd" d="M426 143H356V213H426V143ZM355 142V214H427V142H355Z" fill="#3B3B3B"/>
<path fill-rule="evenodd" clip-rule="evenodd" d="M497 143H427V213H497V143ZM426 142V214H498V142H426Z" fill="#3B3B3B"/>
<path fill-rule="evenodd" clip-rule="evenodd" d="M568 143H498V213H568V143ZM497 142V214H569V142H497Z" fill="#3B3B3B"/>
<path fill-rule="evenodd" clip-rule="evenodd" d="M639 143H569V213H639V143ZM568 142V214H640V142H568Z" fill="#3B3B3B"/>
<path fill-rule="evenodd" clip-rule="evenodd" d="M710 143H640V213H710V143ZM639 142V214H711V142H639Z" fill="#3B3B3B"/>
<path fill-rule="evenodd" clip-rule="evenodd" d="M781 143H711V213H781V143ZM710 142V214H782V142H710Z" fill="#3B3B3B"/>
<path fill-rule="evenodd" clip-rule="evenodd" d="M852 143H782V213H852V143ZM781 142V214H853V142H781Z" fill="#3B3B3B"/>
<path fill-rule="evenodd" clip-rule="evenodd" d="M923 143H853V213H923V143ZM852 142V214H924V142H852Z" fill="#3B3B3B"/>
<path fill-rule="evenodd" clip-rule="evenodd" d="M994 143H924V213H994V143ZM923 142V214H995V142H923Z" fill="#3B3B3B"/>
<path fill-rule="evenodd" clip-rule="evenodd" d="M1065 143H995V213H1065V143ZM994 142V214H1066V142H994Z" fill="#3B3B3B"/>
<path fill-rule="evenodd" clip-rule="evenodd" d="M1136 143H1066V213H1136V143ZM1065 142V214H1137V142H1065Z" fill="#3B3B3B"/>
<path fill-rule="evenodd" clip-rule="evenodd" d="M1207 143H1137V213H1207V143ZM1136 142V214H1208V142H1136Z" fill="#3B3B3B"/>
<path fill-rule="evenodd" clip-rule="evenodd" d="M1278 143H1208V213H1278V143ZM1207 142V214H1279V142H1207Z" fill="#3B3B3B"/>
<path fill-rule="evenodd" clip-rule="evenodd" d="M1349 143H1279V213H1349V143ZM1278 142V214H1350V142H1278Z" fill="#3B3B3B"/>
<path fill-rule="evenodd" clip-rule="evenodd" d="M1420 143H1350V213H1420V143ZM1349 142V214H1421V142H1349Z" fill="#3B3B3B"/>
<path fill-rule="evenodd" clip-rule="evenodd" d="M71 214H1V284H71V214ZM0 213V285H72V213H0Z" fill="#3B3B3B"/>
<path fill-rule="evenodd" clip-rule="evenodd" d="M142 214H72V284H142V214ZM71 213V285H143V213H71Z" fill="#3B3B3B"/>
<path fill-rule="evenodd" clip-rule="evenodd" d="M213 214H143V284H213V214ZM142 213V285H214V213H142Z" fill="#3B3B3B"/>
<path fill-rule="evenodd" clip-rule="evenodd" d="M284 214H214V284H284V214ZM213 213V285H285V213H213Z" fill="#3B3B3B"/>
<path fill-rule="evenodd" clip-rule="evenodd" d="M355 214H285V284H355V214ZM284 213V285H356V213H284Z" fill="#3B3B3B"/>
<path fill-rule="evenodd" clip-rule="evenodd" d="M426 214H356V284H426V214ZM355 213V285H427V213H355Z" fill="#3B3B3B"/>
<path fill-rule="evenodd" clip-rule="evenodd" d="M497 214H427V284H497V214ZM426 213V285H498V213H426Z" fill="#3B3B3B"/>
<path fill-rule="evenodd" clip-rule="evenodd" d="M568 214H498V284H568V214ZM497 213V285H569V213H497Z" fill="#3B3B3B"/>
<path fill-rule="evenodd" clip-rule="evenodd" d="M639 214H569V284H639V214ZM568 213V285H640V213H568Z" fill="#3B3B3B"/>
<path fill-rule="evenodd" clip-rule="evenodd" d="M710 214H640V284H710V214ZM639 213V285H711V213H639Z" fill="#3B3B3B"/>
<path fill-rule="evenodd" clip-rule="evenodd" d="M781 214H711V284H781V214ZM710 213V285H782V213H710Z" fill="#3B3B3B"/>
<path fill-rule="evenodd" clip-rule="evenodd" d="M852 214H782V284H852V214ZM781 213V285H853V213H781Z" fill="#3B3B3B"/>
<path fill-rule="evenodd" clip-rule="evenodd" d="M923 214H853V284H923V214ZM852 213V285H924V213H852Z" fill="#3B3B3B"/>
<path fill-rule="evenodd" clip-rule="evenodd" d="M994 214H924V284H994V214ZM923 213V285H995V213H923Z" fill="#3B3B3B"/>
<path fill-rule="evenodd" clip-rule="evenodd" d="M1065 214H995V284H1065V214ZM994 213V285H1066V213H994Z" fill="#3B3B3B"/>
<path fill-rule="evenodd" clip-rule="evenodd" d="M1136 214H1066V284H1136V214ZM1065 213V285H1137V213H1065Z" fill="#3B3B3B"/>
<path fill-rule="evenodd" clip-rule="evenodd" d="M1207 214H1137V284H1207V214ZM1136 213V285H1208V213H1136Z" fill="#3B3B3B"/>
<path fill-rule="evenodd" clip-rule="evenodd" d="M1278 214H1208V284H1278V214ZM1207 213V285H1279V213H1207Z" fill="#3B3B3B"/>
<path fill-rule="evenodd" clip-rule="evenodd" d="M1349 214H1279V284H1349V214ZM1278 213V285H1350V213H1278Z" fill="#3B3B3B"/>
<path fill-rule="evenodd" clip-rule="evenodd" d="M1420 214H1350V284H1420V214ZM1349 213V285H1421V213H1349Z" fill="#3B3B3B"/>
<path fill-rule="evenodd" clip-rule="evenodd" d="M71 285H1V355H71V285ZM0 284V356H72V284H0Z" fill="#3B3B3B"/>
<path fill-rule="evenodd" clip-rule="evenodd" d="M142 285H72V355H142V285ZM71 284V356H143V284H71Z" fill="#3B3B3B"/>
<path fill-rule="evenodd" clip-rule="evenodd" d="M213 285H143V355H213V285ZM142 284V356H214V284H142Z" fill="#3B3B3B"/>
<path fill-rule="evenodd" clip-rule="evenodd" d="M284 285H214V355H284V285ZM213 284V356H285V284H213Z" fill="#3B3B3B"/>
<path fill-rule="evenodd" clip-rule="evenodd" d="M355 285H285V355H355V285ZM284 284V356H356V284H284Z" fill="#3B3B3B"/>
<path fill-rule="evenodd" clip-rule="evenodd" d="M426 285H356V355H426V285ZM355 284V356H427V284H355Z" fill="#3B3B3B"/>
<path fill-rule="evenodd" clip-rule="evenodd" d="M497 285H427V355H497V285ZM426 284V356H498V284H426Z" fill="#3B3B3B"/>
<path fill-rule="evenodd" clip-rule="evenodd" d="M568 285H498V355H568V285ZM497 284V356H569V284H497Z" fill="#3B3B3B"/>
<path fill-rule="evenodd" clip-rule="evenodd" d="M639 285H569V355H639V285ZM568 284V356H640V284H568Z" fill="#3B3B3B"/>
<path fill-rule="evenodd" clip-rule="evenodd" d="M710 285H640V355H710V285ZM639 284V356H711V284H639Z" fill="#3B3B3B"/>
<path fill-rule="evenodd" clip-rule="evenodd" d="M781 285H711V355H781V285ZM710 284V356H782V284H710Z" fill="#3B3B3B"/>
<path fill-rule="evenodd" clip-rule="evenodd" d="M852 285H782V355H852V285ZM781 284V356H853V284H781Z" fill="#3B3B3B"/>
<path fill-rule="evenodd" clip-rule="evenodd" d="M923 285H853V355H923V285ZM852 284V356H924V284H852Z" fill="#3B3B3B"/>
<path fill-rule="evenodd" clip-rule="evenodd" d="M994 285H924V355H994V285ZM923 284V356H995V284H923Z" fill="#3B3B3B"/>
<path fill-rule="evenodd" clip-rule="evenodd" d="M1065 285H995V355H1065V285ZM994 284V356H1066V284H994Z" fill="#3B3B3B"/>
<path fill-rule="evenodd" clip-rule="evenodd" d="M1136 285H1066V355H1136V285ZM1065 284V356H1137V284H1065Z" fill="#3B3B3B"/>
<path fill-rule="evenodd" clip-rule="evenodd" d="M1207 285H1137V355H1207V285ZM1136 284V356H1208V284H1136Z" fill="#3B3B3B"/>
<path fill-rule="evenodd" clip-rule="evenodd" d="M1278 285H1208V355H1278V285ZM1207 284V356H1279V284H1207Z" fill="#3B3B3B"/>
<path fill-rule="evenodd" clip-rule="evenodd" d="M1349 285H1279V355H1349V285ZM1278 284V356H1350V284H1278Z" fill="#3B3B3B"/>
<path fill-rule="evenodd" clip-rule="evenodd" d="M1420 285H1350V355H1420V285ZM1349 284V356H1421V284H1349Z" fill="#3B3B3B"/>
<path fill-rule="evenodd" clip-rule="evenodd" d="M71 356H1V426H71V356ZM0 355V427H72V355H0Z" fill="#3B3B3B"/>
<path fill-rule="evenodd" clip-rule="evenodd" d="M142 356H72V426H142V356ZM71 355V427H143V355H71Z" fill="#3B3B3B"/>
<path fill-rule="evenodd" clip-rule="evenodd" d="M213 356H143V426H213V356ZM142 355V427H214V355H142Z" fill="#3B3B3B"/>
<path fill-rule="evenodd" clip-rule="evenodd" d="M284 356H214V426H284V356ZM213 355V427H285V355H213Z" fill="#3B3B3B"/>
<path fill-rule="evenodd" clip-rule="evenodd" d="M355 356H285V426H355V356ZM284 355V427H356V355H284Z" fill="#3B3B3B"/>
<path fill-rule="evenodd" clip-rule="evenodd" d="M426 356H356V426H426V356ZM355 355V427H427V355H355Z" fill="#3B3B3B"/>
<path fill-rule="evenodd" clip-rule="evenodd" d="M497 356H427V426H497V356ZM426 355V427H498V355H426Z" fill="#3B3B3B"/>
<path fill-rule="evenodd" clip-rule="evenodd" d="M568 356H498V426H568V356ZM497 355V427H569V355H497Z" fill="#3B3B3B"/>
<path fill-rule="evenodd" clip-rule="evenodd" d="M639 356H569V426H639V356ZM568 355V427H640V355H568Z" fill="#3B3B3B"/>
<path fill-rule="evenodd" clip-rule="evenodd" d="M710 356H640V426H710V356ZM639 355V427H711V355H639Z" fill="#3B3B3B"/>
<path fill-rule="evenodd" clip-rule="evenodd" d="M781 356H711V426H781V356ZM710 355V427H782V355H710Z" fill="#3B3B3B"/>
<path fill-rule="evenodd" clip-rule="evenodd" d="M852 356H782V426H852V356ZM781 355V427H853V355H781Z" fill="#3B3B3B"/>
<path fill-rule="evenodd" clip-rule="evenodd" d="M923 356H853V426H923V356ZM852 355V427H924V355H852Z" fill="#3B3B3B"/>
<path fill-rule="evenodd" clip-rule="evenodd" d="M994 356H924V426H994V356ZM923 355V427H995V355H923Z" fill="#3B3B3B"/>
<path fill-rule="evenodd" clip-rule="evenodd" d="M1065 356H995V426H1065V356ZM994 355V427H1066V355H994Z" fill="#3B3B3B"/>
<path fill-rule="evenodd" clip-rule="evenodd" d="M1136 356H1066V426H1136V356ZM1065 355V427H1137V355H1065Z" fill="#3B3B3B"/>
<path fill-rule="evenodd" clip-rule="evenodd" d="M1207 356H1137V426H1207V356ZM1136 355V427H1208V355H1136Z" fill="#3B3B3B"/>
<path fill-rule="evenodd" clip-rule="evenodd" d="M1278 356H1208V426H1278V356ZM1207 355V427H1279V355H1207Z" fill="#3B3B3B"/>
<path fill-rule="evenodd" clip-rule="evenodd" d="M1349 356H1279V426H1349V356ZM1278 355V427H1350V355H1278Z" fill="#3B3B3B"/>
<path fill-rule="evenodd" clip-rule="evenodd" d="M1420 356H1350V426H1420V356ZM1349 355V427H1421V355H1349Z" fill="#3B3B3B"/>
<path fill-rule="evenodd" clip-rule="evenodd" d="M71 427H1V497H71V427ZM0 426V498H72V426H0Z" fill="#3B3B3B"/>
<path fill-rule="evenodd" clip-rule="evenodd" d="M142 427H72V497H142V427ZM71 426V498H143V426H71Z" fill="#3B3B3B"/>
<path fill-rule="evenodd" clip-rule="evenodd" d="M213 427H143V497H213V427ZM142 426V498H214V426H142Z" fill="#3B3B3B"/>
<path fill-rule="evenodd" clip-rule="evenodd" d="M284 427H214V497H284V427ZM213 426V498H285V426H213Z" fill="#3B3B3B"/>
<path fill-rule="evenodd" clip-rule="evenodd" d="M355 427H285V497H355V427ZM284 426V498H356V426H284Z" fill="#3B3B3B"/>
<path fill-rule="evenodd" clip-rule="evenodd" d="M426 427H356V497H426V427ZM355 426V498H427V426H355Z" fill="#3B3B3B"/>
<path fill-rule="evenodd" clip-rule="evenodd" d="M497 427H427V497H497V427ZM426 426V498H498V426H426Z" fill="#3B3B3B"/>
<path fill-rule="evenodd" clip-rule="evenodd" d="M568 427H498V497H568V427ZM497 426V498H569V426H497Z" fill="#3B3B3B"/>
<path fill-rule="evenodd" clip-rule="evenodd" d="M639 427H569V497H639V427ZM568 426V498H640V426H568Z" fill="#3B3B3B"/>
<path fill-rule="evenodd" clip-rule="evenodd" d="M710 427H640V497H710V427ZM639 426V498H711V426H639Z" fill="#3B3B3B"/>
<path fill-rule="evenodd" clip-rule="evenodd" d="M781 427H711V497H781V427ZM710 426V498H782V426H710Z" fill="#3B3B3B"/>
<path fill-rule="evenodd" clip-rule="evenodd" d="M852 427H782V497H852V427ZM781 426V498H853V426H781Z" fill="#3B3B3B"/>
<path fill-rule="evenodd" clip-rule="evenodd" d="M923 427H853V497H923V427ZM852 426V498H924V426H852Z" fill="#3B3B3B"/>
<path fill-rule="evenodd" clip-rule="evenodd" d="M994 427H924V497H994V427ZM923 426V498H995V426H923Z" fill="#3B3B3B"/>
<path fill-rule="evenodd" clip-rule="evenodd" d="M1065 427H995V497H1065V427ZM994 426V498H1066V426H994Z" fill="#3B3B3B"/>
<path fill-rule="evenodd" clip-rule="evenodd" d="M1136 427H1066V497H1136V427ZM1065 426V498H1137V426H1065Z" fill="#3B3B3B"/>
<path fill-rule="evenodd" clip-rule="evenodd" d="M1207 427H1137V497H1207V427ZM1136 426V498H1208V426H1136Z" fill="#3B3B3B"/>
<path fill-rule="evenodd" clip-rule="evenodd" d="M1278 427H1208V497H1278V427ZM1207 426V498H1279V426H1207Z" fill="#3B3B3B"/>
<path fill-rule="evenodd" clip-rule="evenodd" d="M1349 427H1279V497H1349V427ZM1278 426V498H1350V426H1278Z" fill="#3B3B3B"/>
<path fill-rule="evenodd" clip-rule="evenodd" d="M1420 427H1350V497H1420V427ZM1349 426V498H1421V426H1349Z" fill="#3B3B3B"/>
<path fill-rule="evenodd" clip-rule="evenodd" d="M71 498H1V568H71V498ZM0 497V569H72V497H0Z" fill="#3B3B3B"/>
<path fill-rule="evenodd" clip-rule="evenodd" d="M142 498H72V568H142V498ZM71 497V569H143V497H71Z" fill="#3B3B3B"/>
<path fill-rule="evenodd" clip-rule="evenodd" d="M213 498H143V568H213V498ZM142 497V569H214V497H142Z" fill="#3B3B3B"/>
<path fill-rule="evenodd" clip-rule="evenodd" d="M284 498H214V568H284V498ZM213 497V569H285V497H213Z" fill="#3B3B3B"/>
<path fill-rule="evenodd" clip-rule="evenodd" d="M355 498H285V568H355V498ZM284 497V569H356V497H284Z" fill="#3B3B3B"/>
<path fill-rule="evenodd" clip-rule="evenodd" d="M426 498H356V568H426V498ZM355 497V569H427V497H355Z" fill="#3B3B3B"/>
<path fill-rule="evenodd" clip-rule="evenodd" d="M497 498H427V568H497V498ZM426 497V569H498V497H426Z" fill="#3B3B3B"/>
<path fill-rule="evenodd" clip-rule="evenodd" d="M568 498H498V568H568V498ZM497 497V569H569V497H497Z" fill="#3B3B3B"/>
<path fill-rule="evenodd" clip-rule="evenodd" d="M639 498H569V568H639V498ZM568 497V569H640V497H568Z" fill="#3B3B3B"/>
<path fill-rule="evenodd" clip-rule="evenodd" d="M710 498H640V568H710V498ZM639 497V569H711V497H639Z" fill="#3B3B3B"/>
<path fill-rule="evenodd" clip-rule="evenodd" d="M781 498H711V568H781V498ZM710 497V569H782V497H710Z" fill="#3B3B3B"/>
<path fill-rule="evenodd" clip-rule="evenodd" d="M852 498H782V568H852V498ZM781 497V569H853V497H781Z" fill="#3B3B3B"/>
<path fill-rule="evenodd" clip-rule="evenodd" d="M923 498H853V568H923V498ZM852 497V569H924V497H852Z" fill="#3B3B3B"/>
<path fill-rule="evenodd" clip-rule="evenodd" d="M994 498H924V568H994V498ZM923 497V569H995V497H923Z" fill="#3B3B3B"/>
<path fill-rule="evenodd" clip-rule="evenodd" d="M1065 498H995V568H1065V498ZM994 497V569H1066V497H994Z" fill="#3B3B3B"/>
<path fill-rule="evenodd" clip-rule="evenodd" d="M1136 498H1066V568H1136V498ZM1065 497V569H1137V497H1065Z" fill="#3B3B3B"/>
<path fill-rule="evenodd" clip-rule="evenodd" d="M1207 498H1137V568H1207V498ZM1136 497V569H1208V497H1136Z" fill="#3B3B3B"/>
<path fill-rule="evenodd" clip-rule="evenodd" d="M1278 498H1208V568H1278V498ZM1207 497V569H1279V497H1207Z" fill="#3B3B3B"/>
<path fill-rule="evenodd" clip-rule="evenodd" d="M1349 498H1279V568H1349V498ZM1278 497V569H1350V497H1278Z" fill="#3B3B3B"/>
<path fill-rule="evenodd" clip-rule="evenodd" d="M1420 498H1350V568H1420V498ZM1349 497V569H1421V497H1349Z" fill="#3B3B3B"/>
<path fill-rule="evenodd" clip-rule="evenodd" d="M71 569H1V639H71V569ZM0 568V640H72V568H0Z" fill="#3B3B3B"/>
<path fill-rule="evenodd" clip-rule="evenodd" d="M142 569H72V639H142V569ZM71 568V640H143V568H71Z" fill="#3B3B3B"/>
<path fill-rule="evenodd" clip-rule="evenodd" d="M213 569H143V639H213V569ZM142 568V640H214V568H142Z" fill="#3B3B3B"/>
<path fill-rule="evenodd" clip-rule="evenodd" d="M284 569H214V639H284V569ZM213 568V640H285V568H213Z" fill="#3B3B3B"/>
<path fill-rule="evenodd" clip-rule="evenodd" d="M355 569H285V639H355V569ZM284 568V640H356V568H284Z" fill="#3B3B3B"/>
<path fill-rule="evenodd" clip-rule="evenodd" d="M426 569H356V639H426V569ZM355 568V640H427V568H355Z" fill="#3B3B3B"/>
<path fill-rule="evenodd" clip-rule="evenodd" d="M497 569H427V639H497V569ZM426 568V640H498V568H426Z" fill="#3B3B3B"/>
<path fill-rule="evenodd" clip-rule="evenodd" d="M568 569H498V639H568V569ZM497 568V640H569V568H497Z" fill="#3B3B3B"/>
<path fill-rule="evenodd" clip-rule="evenodd" d="M639 569H569V639H639V569ZM568 568V640H640V568H568Z" fill="#3B3B3B"/>
<path fill-rule="evenodd" clip-rule="evenodd" d="M710 569H640V639H710V569ZM639 568V640H711V568H639Z" fill="#3B3B3B"/>
<path fill-rule="evenodd" clip-rule="evenodd" d="M781 569H711V639H781V569ZM710 568V640H782V568H710Z" fill="#3B3B3B"/>
<path fill-rule="evenodd" clip-rule="evenodd" d="M852 569H782V639H852V569ZM781 568V640H853V568H781Z" fill="#3B3B3B"/>
<path fill-rule="evenodd" clip-rule="evenodd" d="M923 569H853V639H923V569ZM852 568V640H924V568H852Z" fill="#3B3B3B"/>
<path fill-rule="evenodd" clip-rule="evenodd" d="M994 569H924V639H994V569ZM923 568V640H995V568H923Z" fill="#3B3B3B"/>
<path fill-rule="evenodd" clip-rule="evenodd" d="M1065 569H995V639H1065V569ZM994 568V640H1066V568H994Z" fill="#3B3B3B"/>
<path fill-rule="evenodd" clip-rule="evenodd" d="M1136 569H1066V639H1136V569ZM1065 568V640H1137V568H1065Z" fill="#3B3B3B"/>
<path fill-rule="evenodd" clip-rule="evenodd" d="M1207 569H1137V639H1207V569ZM1136 568V640H1208V568H1136Z" fill="#3B3B3B"/>
<path fill-rule="evenodd" clip-rule="evenodd" d="M1278 569H1208V639H1278V569ZM1207 568V640H1279V568H1207Z" fill="#3B3B3B"/>
<path fill-rule="evenodd" clip-rule="evenodd" d="M1349 569H1279V639H1349V569ZM1278 568V640H1350V568H1278Z" fill="#3B3B3B"/>
<path fill-rule="evenodd" clip-rule="evenodd" d="M1420 569H1350V639H1420V569ZM1349 568V640H1421V568H1349Z" fill="#3B3B3B"/>
<path fill-rule="evenodd" clip-rule="evenodd" d="M71 640H1V710H71V640ZM0 639V711H72V639H0Z" fill="#3B3B3B"/>
<path fill-rule="evenodd" clip-rule="evenodd" d="M142 640H72V710H142V640ZM71 639V711H143V639H71Z" fill="#3B3B3B"/>
<path fill-rule="evenodd" clip-rule="evenodd" d="M213 640H143V710H213V640ZM142 639V711H214V639H142Z" fill="#3B3B3B"/>
<path fill-rule="evenodd" clip-rule="evenodd" d="M284 640H214V710H284V640ZM213 639V711H285V639H213Z" fill="#3B3B3B"/>
<path fill-rule="evenodd" clip-rule="evenodd" d="M355 640H285V710H355V640ZM284 639V711H356V639H284Z" fill="#3B3B3B"/>
<path fill-rule="evenodd" clip-rule="evenodd" d="M426 640H356V710H426V640ZM355 639V711H427V639H355Z" fill="#3B3B3B"/>
<path fill-rule="evenodd" clip-rule="evenodd" d="M497 640H427V710H497V640ZM426 639V711H498V639H426Z" fill="#3B3B3B"/>
<path fill-rule="evenodd" clip-rule="evenodd" d="M568 640H498V710H568V640ZM497 639V711H569V639H497Z" fill="#3B3B3B"/>
<path fill-rule="evenodd" clip-rule="evenodd" d="M639 640H569V710H639V640ZM568 639V711H640V639H568Z" fill="#3B3B3B"/>
<path fill-rule="evenodd" clip-rule="evenodd" d="M710 640H640V710H710V640ZM639 639V711H711V639H639Z" fill="#3B3B3B"/>
<path fill-rule="evenodd" clip-rule="evenodd" d="M781 640H711V710H781V640ZM710 639V711H782V639H710Z" fill="#3B3B3B"/>
<path fill-rule="evenodd" clip-rule="evenodd" d="M852 640H782V710H852V640ZM781 639V711H853V639H781Z" fill="#3B3B3B"/>
<path fill-rule="evenodd" clip-rule="evenodd" d="M923 640H853V710H923V640ZM852 639V711H924V639H852Z" fill="#3B3B3B"/>
<path fill-rule="evenodd" clip-rule="evenodd" d="M994 640H924V710H994V640ZM923 639V711H995V639H923Z" fill="#3B3B3B"/>
<path fill-rule="evenodd" clip-rule="evenodd" d="M1065 640H995V710H1065V640ZM994 639V711H1066V639H994Z" fill="#3B3B3B"/>
<path fill-rule="evenodd" clip-rule="evenodd" d="M1136 640H1066V710H1136V640ZM1065 639V711H1137V639H1065Z" fill="#3B3B3B"/>
<path fill-rule="evenodd" clip-rule="evenodd" d="M1207 640H1137V710H1207V640ZM1136 639V711H1208V639H1136Z" fill="#3B3B3B"/>
<path fill-rule="evenodd" clip-rule="evenodd" d="M1278 640H1208V710H1278V640ZM1207 639V711H1279V639H1207Z" fill="#3B3B3B"/>
<path fill-rule="evenodd" clip-rule="evenodd" d="M1349 640H1279V710H1349V640ZM1278 639V711H1350V639H1278Z" fill="#3B3B3B"/>
<path fill-rule="evenodd" clip-rule="evenodd" d="M1420 640H1350V710H1420V640ZM1349 639V711H1421V639H1349Z" fill="#3B3B3B"/>
<path fill-rule="evenodd" clip-rule="evenodd" d="M71 711H1V781H71V711ZM0 710V782H72V710H0Z" fill="#3B3B3B"/>
<path fill-rule="evenodd" clip-rule="evenodd" d="M142 711H72V781H142V711ZM71 710V782H143V710H71Z" fill="#3B3B3B"/>
<path fill-rule="evenodd" clip-rule="evenodd" d="M213 711H143V781H213V711ZM142 710V782H214V710H142Z" fill="#3B3B3B"/>
<path fill-rule="evenodd" clip-rule="evenodd" d="M284 711H214V781H284V711ZM213 710V782H285V710H213Z" fill="#3B3B3B"/>
<path fill-rule="evenodd" clip-rule="evenodd" d="M355 711H285V781H355V711ZM284 710V782H356V710H284Z" fill="#3B3B3B"/>
<path fill-rule="evenodd" clip-rule="evenodd" d="M426 711H356V781H426V711ZM355 710V782H427V710H355Z" fill="#3B3B3B"/>
<path fill-rule="evenodd" clip-rule="evenodd" d="M497 711H427V781H497V711ZM426 710V782H498V710H426Z" fill="#3B3B3B"/>
<path fill-rule="evenodd" clip-rule="evenodd" d="M568 711H498V781H568V711ZM497 710V782H569V710H497Z" fill="#3B3B3B"/>
<path fill-rule="evenodd" clip-rule="evenodd" d="M639 711H569V781H639V711ZM568 710V782H640V710H568Z" fill="#3B3B3B"/>
<path fill-rule="evenodd" clip-rule="evenodd" d="M710 711H640V781H710V711ZM639 710V782H711V710H639Z" fill="#3B3B3B"/>
<path fill-rule="evenodd" clip-rule="evenodd" d="M781 711H711V781H781V711ZM710 710V782H782V710H710Z" fill="#3B3B3B"/>
<path fill-rule="evenodd" clip-rule="evenodd" d="M852 711H782V781H852V711ZM781 710V782H853V710H781Z" fill="#3B3B3B"/>
<path fill-rule="evenodd" clip-rule="evenodd" d="M923 711H853V781H923V711ZM852 710V782H924V710H852Z" fill="#3B3B3B"/>
<path fill-rule="evenodd" clip-rule="evenodd" d="M994 711H924V781H994V711ZM923 710V782H995V710H923Z" fill="#3B3B3B"/>
<path fill-rule="evenodd" clip-rule="evenodd" d="M1065 711H995V781H1065V711ZM994 710V782H1066V710H994Z" fill="#3B3B3B"/>
<path fill-rule="evenodd" clip-rule="evenodd" d="M1136 711H1066V781H1136V711ZM1065 710V782H1137V710H1065Z" fill="#3B3B3B"/>
<path fill-rule="evenodd" clip-rule="evenodd" d="M1207 711H1137V781H1207V711ZM1136 710V782H1208V710H1136Z" fill="#3B3B3B"/>
<path fill-rule="evenodd" clip-rule="evenodd" d="M1278 711H1208V781H1278V711ZM1207 710V782H1279V710H1207Z" fill="#3B3B3B"/>
<path fill-rule="evenodd" clip-rule="evenodd" d="M1349 711H1279V781H1349V711ZM1278 710V782H1350V710H1278Z" fill="#3B3B3B"/>
<path fill-rule="evenodd" clip-rule="evenodd" d="M1420 711H1350V781H1420V711ZM1349 710V782H1421V710H1349Z" fill="#3B3B3B"/>
<line x1="719" y1="426.5" x2="703" y2="426.5" stroke="white"/>
<line x1="710.5" y1="434" x2="710.5" y2="418" stroke="white"/>
<line x1="719" y1="213.5" x2="703" y2="213.5" stroke="white"/>
<line x1="710.5" y1="221" x2="710.5" y2="205" stroke="white"/>
<line x1="719" y1="568.5" x2="703" y2="568.5" stroke="white"/>
<line x1="710.5" y1="576" x2="710.5" y2="560" stroke="white"/>
<line x1="719" y1="710.5" x2="703" y2="710.5" stroke="white"/>
<line x1="710.5" y1="718" x2="710.5" y2="702" stroke="white"/>
<line x1="719" y1="71.5" x2="703" y2="71.5" stroke="white"/>
<line x1="710.5" y1="79" x2="710.5" y2="63" stroke="white"/>
<line x1="506" y1="426.5" x2="490" y2="426.5" stroke="white"/>
<line x1="497.5" y1="434" x2="497.5" y2="418" stroke="white"/>
<line x1="506" y1="213.5" x2="490" y2="213.5" stroke="white"/>
<line x1="497.5" y1="221" x2="497.5" y2="205" stroke="white"/>
<line x1="506" y1="568.5" x2="490" y2="568.5" stroke="white"/>
<line x1="497.5" y1="576" x2="497.5" y2="560" stroke="white"/>
<line x1="506" y1="710.5" x2="490" y2="710.5" stroke="white"/>
<line x1="497.5" y1="718" x2="497.5" y2="702" stroke="white"/>
<line x1="506" y1="71.5" x2="490" y2="71.5" stroke="white"/>
<line x1="497.5" y1="79" x2="497.5" y2="63" stroke="white"/>
<line x1="293" y1="426.5" x2="277" y2="426.5" stroke="white"/>
<line x1="284.5" y1="434" x2="284.5" y2="418" stroke="white"/>
<line x1="293" y1="213.5" x2="277" y2="213.5" stroke="white"/>
<line x1="284.5" y1="221" x2="284.5" y2="205" stroke="white"/>
<line x1="293" y1="568.5" x2="277" y2="568.5" stroke="white"/>
<line x1="284.5" y1="576" x2="284.5" y2="560" stroke="white"/>
<line x1="293" y1="710.5" x2="277" y2="710.5" stroke="white"/>
<line x1="284.5" y1="718" x2="284.5" y2="702" stroke="white"/>
<line x1="293" y1="71.5" x2="277" y2="71.5" stroke="white"/>
<line x1="284.5" y1="79" x2="284.5" y2="63" stroke="white"/>
<line x1="80" y1="426.5" x2="64" y2="426.5" stroke="white"/>
<line x1="71.5" y1="434" x2="71.5" y2="418" stroke="white"/>
<line x1="80" y1="213.5" x2="64" y2="213.5" stroke="white"/>
<line x1="71.5" y1="221" x2="71.5" y2="205" stroke="white"/>
<line x1="80" y1="568.5" x2="64" y2="568.5" stroke="white"/>
<line x1="71.5" y1="576" x2="71.5" y2="560" stroke="white"/>
<line x1="80" y1="710.5" x2="64" y2="710.5" stroke="white"/>
<line x1="71.5" y1="718" x2="71.5" y2="702" stroke="white"/>
<line x1="80" y1="71.5" x2="64" y2="71.5" stroke="white"/>
<line x1="71.5" y1="79" x2="71.5" y2="63" stroke="white"/>
<line x1="932" y1="426.5" x2="916" y2="426.5" stroke="white"/>
<line x1="923.5" y1="434" x2="923.5" y2="418" stroke="white"/>
<line x1="932" y1="213.5" x2="916" y2="213.5" stroke="white"/>
<line x1="923.5" y1="221" x2="923.5" y2="205" stroke="white"/>
<line x1="932" y1="568.5" x2="916" y2="568.5" stroke="white"/>
<line x1="923.5" y1="576" x2="923.5" y2="560" stroke="white"/>
<line x1="932" y1="710.5" x2="916" y2="710.5" stroke="white"/>
<line x1="923.5" y1="718" x2="923.5" y2="702" stroke="white"/>
<line x1="932" y1="71.5" x2="916" y2="71.5" stroke="white"/>
<line x1="923.5" y1="79" x2="923.5" y2="63" stroke="white"/>
<line x1="1145" y1="426.5" x2="1129" y2="426.5" stroke="white"/>
<line x1="1136.5" y1="434" x2="1136.5" y2="418" stroke="white"/>
<line x1="1145" y1="213.5" x2="1129" y2="213.5" stroke="white"/>
<line x1="1136.5" y1="221" x2="1136.5" y2="205" stroke="white"/>
<line x1="1145" y1="568.5" x2="1129" y2="568.5" stroke="white"/>
<line x1="1136.5" y1="576" x2="1136.5" y2="560" stroke="white"/>
<line x1="1145" y1="710.5" x2="1129" y2="710.5" stroke="white"/>
<line x1="1136.5" y1="718" x2="1136.5" y2="702" stroke="white"/>
<line x1="1145" y1="71.5" x2="1129" y2="71.5" stroke="white"/>
<line x1="1136.5" y1="79" x2="1136.5" y2="63" stroke="white"/>
<line x1="1358" y1="426.5" x2="1342" y2="426.5" stroke="white"/>
<line x1="1349.5" y1="434" x2="1349.5" y2="418" stroke="white"/>
<line x1="1358" y1="213.5" x2="1342" y2="213.5" stroke="white"/>
<line x1="1349.5" y1="221" x2="1349.5" y2="205" stroke="white"/>
<line x1="1358" y1="568.5" x2="1342" y2="568.5" stroke="white"/>
<line x1="1349.5" y1="576" x2="1349.5" y2="560" stroke="white"/>
<line x1="1358" y1="710.5" x2="1342" y2="710.5" stroke="white"/>
<line x1="1349.5" y1="718" x2="1349.5" y2="702" stroke="white"/>
<line x1="1358" y1="71.5" x2="1342" y2="71.5" stroke="white"/>
<line x1="1349.5" y1="79" x2="1349.5" y2="63" stroke="white"/>
</svg>
